%TF.GenerationSoftware,KiCad,Pcbnew,9.0.8+1*%
%TF.CreationDate,2026-06-11T13:52:37-04:00*%
%TF.ProjectId,om-84_strumplate,6f6d2d38-345f-4737-9472-756d706c6174,rev?*%
%TF.SameCoordinates,Original*%
%TF.FileFunction,Profile,NP*%
%FSLAX46Y46*%
G04 Gerber Fmt 4.6, Leading zero omitted, Abs format (unit mm)*
G04 Created by KiCad (PCBNEW 9.0.8+1) date 2026-06-11 13:52:37*
%MOMM*%
%LPD*%
G01*
G04 APERTURE LIST*
%TA.AperFunction,Profile*%
%ADD10C,0.485000*%
%TD*%
G04 APERTURE END LIST*
D10*
X195049980Y-66857299D02*
X195366331Y-66874656D01*
X195660216Y-66902146D01*
X195927697Y-66940175D01*
X196164833Y-66989147D01*
X196367686Y-67049468D01*
X196532317Y-67121542D01*
X196599068Y-67162113D01*
X196654787Y-67205774D01*
X196698981Y-67252575D01*
X196731158Y-67302568D01*
X196750825Y-67355802D01*
X196757490Y-67412330D01*
X196757490Y-67460639D01*
X196757490Y-67758826D01*
X196757490Y-68233832D01*
X196757490Y-68388221D01*
X196757490Y-73625159D01*
X196757490Y-73782966D01*
X196757490Y-74415443D01*
X196757490Y-75210150D01*
X196757490Y-75348120D01*
X196757490Y-83277167D01*
X196757490Y-83319464D01*
X196757490Y-83996802D01*
X196757490Y-85732459D01*
X196757490Y-86028784D01*
X196757490Y-91489783D01*
X196757490Y-91659125D01*
X196757490Y-91955451D01*
X196757490Y-93225440D01*
X196757490Y-96713691D01*
X196757490Y-98385871D01*
X196757490Y-100252783D01*
X196757490Y-103440344D01*
X196757490Y-103724066D01*
X196757490Y-129462744D01*
X196757490Y-143912055D01*
X196757490Y-144065222D01*
X196757490Y-144347937D01*
X196757490Y-144406440D01*
X196757490Y-144914435D01*
X196757490Y-146946448D01*
X196757490Y-148682105D01*
X196757490Y-152407447D01*
X196757490Y-156450263D01*
X196757490Y-157148749D01*
X196757490Y-158198340D01*
X196757490Y-159209326D01*
X196757490Y-165631568D01*
X196757490Y-171753729D01*
X196757490Y-172050055D01*
X196757490Y-173108405D01*
X196757490Y-178019049D01*
X196757490Y-178230719D01*
X196757490Y-179500708D01*
X196757490Y-179754706D01*
X196757490Y-180072211D01*
X196757490Y-181532721D01*
X196757490Y-182781562D01*
X196757490Y-183776404D01*
X196757490Y-184552527D01*
X196757490Y-185618262D01*
X196757490Y-185773474D01*
X196757490Y-187628729D01*
X196757490Y-187840399D01*
X196757490Y-188052069D01*
X196757490Y-190105231D01*
X196757490Y-191996100D01*
X196757490Y-192031409D01*
X196757490Y-192151313D01*
X196757490Y-194294959D01*
X196757490Y-195056960D01*
X196757490Y-197115065D01*
X196757490Y-197516738D01*
X196757490Y-198127455D01*
X196757490Y-198179579D01*
X196757490Y-198661635D01*
X196757490Y-199524489D01*
X196757490Y-199858168D01*
X196757490Y-200244155D01*
X196757490Y-200730971D01*
X196757490Y-201048476D01*
X196757490Y-201196608D01*
X196757490Y-201831618D01*
X196757490Y-201979811D01*
X196757490Y-202530165D01*
X196757490Y-202868849D01*
X196757490Y-203304091D01*
X196757490Y-204090956D01*
X196757490Y-204308180D01*
X196757490Y-204524550D01*
X196757490Y-204866957D01*
X196757490Y-205239516D01*
X196757490Y-206445998D01*
X196757490Y-212500991D01*
X196749033Y-214673054D01*
X196735626Y-215542010D01*
X196710026Y-216279488D01*
X196667677Y-216895416D01*
X196604023Y-217399723D01*
X196514508Y-217802338D01*
X196458628Y-217968613D01*
X196394575Y-218113188D01*
X196321779Y-218237305D01*
X196239670Y-218342204D01*
X196147678Y-218429126D01*
X196045235Y-218499312D01*
X195931771Y-218554004D01*
X195806715Y-218594443D01*
X195669500Y-218621869D01*
X195519555Y-218637524D01*
X195179196Y-218638485D01*
X194781085Y-218607253D01*
X193793379Y-218487929D01*
X193795638Y-218487807D01*
X190922812Y-218106787D01*
X187614973Y-217638747D01*
X186651373Y-217499045D01*
X185582991Y-217347487D01*
X184427557Y-217181037D01*
X183254683Y-217005568D01*
X182168837Y-216844329D01*
X181222700Y-216712111D01*
X180288969Y-216582831D01*
X179233015Y-216428786D01*
X178338713Y-216296134D01*
X177793684Y-216218276D01*
X176533797Y-216045066D01*
X174957320Y-215823561D01*
X174399573Y-215745650D01*
X173772017Y-215660231D01*
X173475603Y-215618086D01*
X173169279Y-215570441D01*
X172889162Y-215523151D01*
X172671370Y-215482070D01*
X172576823Y-215463794D01*
X172470248Y-215445372D01*
X172355293Y-215427305D01*
X172235602Y-215410094D01*
X172114820Y-215394239D01*
X171996595Y-215380240D01*
X171884570Y-215368599D01*
X171782393Y-215359816D01*
X171680213Y-215350960D01*
X171568182Y-215339151D01*
X171449949Y-215324897D01*
X171329161Y-215308707D01*
X171209466Y-215291089D01*
X171094511Y-215272552D01*
X170987945Y-215253605D01*
X170893416Y-215234755D01*
X170789365Y-215214005D01*
X170655552Y-215189567D01*
X170320860Y-215133216D01*
X169933777Y-215072870D01*
X169538741Y-215015700D01*
X169160401Y-214959461D01*
X168818785Y-214901648D01*
X168673468Y-214874271D01*
X168551396Y-214849043D01*
X168457255Y-214826811D01*
X168395735Y-214808425D01*
X168370882Y-214800194D01*
X168340261Y-214791706D01*
X168263450Y-214774213D01*
X168168776Y-214756465D01*
X168059714Y-214738982D01*
X167939736Y-214722283D01*
X167812318Y-214706887D01*
X167680933Y-214693313D01*
X167549055Y-214682082D01*
X167272940Y-214656470D01*
X166918344Y-214616212D01*
X166046545Y-214501921D01*
X165079337Y-214359547D01*
X164162398Y-214209426D01*
X163905295Y-214166748D01*
X163612074Y-214121512D01*
X163318854Y-214079126D01*
X163061751Y-214044997D01*
X161769741Y-213871321D01*
X160645697Y-213696501D01*
X160193868Y-213616623D01*
X159840680Y-213546012D01*
X159605013Y-213487851D01*
X159537151Y-213464435D01*
X159505751Y-213445326D01*
X159502806Y-213442322D01*
X159498363Y-213439240D01*
X159485149Y-213432871D01*
X159466435Y-213426271D01*
X159442545Y-213419494D01*
X159413806Y-213412592D01*
X159380543Y-213405616D01*
X159343082Y-213398619D01*
X159301749Y-213391654D01*
X159208766Y-213378026D01*
X159104201Y-213365152D01*
X158990657Y-213353449D01*
X158870741Y-213343337D01*
X158634348Y-213324901D01*
X158423877Y-213305920D01*
X158214024Y-213282863D01*
X157979487Y-213252196D01*
X157694960Y-213210389D01*
X157335140Y-213153908D01*
X156288405Y-212982802D01*
X154841971Y-212746276D01*
X153875410Y-212598830D01*
X153611888Y-212558532D01*
X153332487Y-212514029D01*
X153070550Y-212470728D01*
X152859419Y-212434035D01*
X152237124Y-212326827D01*
X151335432Y-212176589D01*
X148679614Y-211740317D01*
X148211471Y-211649910D01*
X147811271Y-211558728D01*
X147473822Y-211462650D01*
X147193934Y-211357558D01*
X146966415Y-211239330D01*
X146870671Y-211174004D01*
X146786074Y-211103848D01*
X146711973Y-211028349D01*
X146647720Y-210946991D01*
X146592665Y-210859260D01*
X146546161Y-210764640D01*
X146476208Y-210552674D01*
X146432669Y-210306973D01*
X146410352Y-210023419D01*
X146404066Y-209697890D01*
X146404066Y-208905654D01*
X146404066Y-208608657D01*
X146404066Y-194063452D01*
X146404066Y-192497138D01*
X146404066Y-186295294D01*
X146404066Y-186020026D01*
X146404066Y-182739203D01*
X146404066Y-179119818D01*
X146404066Y-177786322D01*
X146404066Y-176791480D01*
X146404066Y-176452826D01*
X146404066Y-176114142D01*
X146404066Y-173701148D01*
X146404066Y-173489478D01*
X146404066Y-173404791D01*
X146404066Y-164027960D01*
X146404066Y-163922126D01*
X146404066Y-162567450D01*
X146404066Y-161212775D01*
X146404066Y-160872595D01*
X146404066Y-160234198D01*
X146407302Y-160163700D01*
X146417043Y-160099151D01*
X146433338Y-160040306D01*
X146456240Y-159986920D01*
X146485797Y-159938747D01*
X146522061Y-159895543D01*
X146565083Y-159857063D01*
X146614911Y-159823061D01*
X146671597Y-159793293D01*
X146735191Y-159767513D01*
X146805744Y-159745477D01*
X146883306Y-159726939D01*
X146967927Y-159711655D01*
X147059658Y-159699379D01*
X147158549Y-159689866D01*
X147264651Y-159682871D01*
X147378013Y-159678150D01*
X147498688Y-159675457D01*
X147762172Y-159675174D01*
X148055506Y-159680064D01*
X148379095Y-159688165D01*
X149118647Y-159706160D01*
X149535416Y-159712133D01*
X149984053Y-159713477D01*
X152187666Y-159713477D01*
X152245467Y-159713477D01*
X152758406Y-159713477D01*
X153213484Y-159713477D01*
X153329298Y-159713477D01*
X153517012Y-159713477D01*
X153699568Y-159713477D01*
X154326765Y-159713477D01*
X154445013Y-159708268D01*
X154561302Y-159697308D01*
X154675226Y-159681239D01*
X154786381Y-159660707D01*
X154894362Y-159636356D01*
X154998764Y-159608831D01*
X155099184Y-159578778D01*
X155195216Y-159546839D01*
X155372496Y-159479888D01*
X155527369Y-159413134D01*
X155656597Y-159351735D01*
X155756941Y-159300849D01*
X155989302Y-159180548D01*
X156133650Y-158841864D01*
X156057844Y-157444861D01*
X155949782Y-157106207D01*
X155865095Y-157106207D01*
X155441756Y-157106207D01*
X154771467Y-157106207D01*
X154072981Y-157106207D01*
X152690077Y-157106207D01*
X152299208Y-157106207D01*
X152076247Y-157106207D01*
X150700392Y-157106207D01*
X142191389Y-157106207D01*
X138155562Y-157106207D01*
X132250136Y-157106207D01*
X123380934Y-157106207D01*
X123194533Y-157106207D01*
X122416914Y-157106207D01*
X115611616Y-157106207D01*
X109742903Y-157106207D01*
X101300948Y-157106207D01*
X91790053Y-157106207D01*
X90397047Y-157106207D01*
X86262495Y-157106207D01*
X79580000Y-157106207D01*
X79580000Y-151856971D01*
X79580000Y-148357428D01*
X79580000Y-147665992D01*
X79580000Y-146650000D01*
X79580000Y-145634009D01*
X79580000Y-144956671D01*
X79580000Y-144279334D01*
X79580000Y-143263343D01*
X79580000Y-142247351D01*
X79580000Y-141908698D01*
X79580000Y-141570014D01*
X79580000Y-141231330D01*
X79580000Y-140892676D01*
X79580000Y-140215338D01*
X79580000Y-139538001D01*
X79580000Y-138585486D01*
X79580000Y-135795752D01*
X82754958Y-135795752D01*
X83417555Y-135795752D01*
X83523390Y-135795752D01*
X87856123Y-135795752D01*
X148117628Y-135795752D01*
X151927626Y-135795752D01*
X155166121Y-135795752D01*
X155441298Y-135795752D01*
X155861555Y-135795752D01*
X155914516Y-135801734D01*
X155964543Y-135805450D01*
X156011706Y-135806964D01*
X156056075Y-135806339D01*
X156097720Y-135803638D01*
X156136711Y-135798923D01*
X156173118Y-135792257D01*
X156207011Y-135783705D01*
X156238459Y-135773328D01*
X156267534Y-135761190D01*
X156294305Y-135747354D01*
X156318842Y-135731882D01*
X156341215Y-135714838D01*
X156361493Y-135696285D01*
X156379748Y-135676285D01*
X156396048Y-135654902D01*
X156410464Y-135632199D01*
X156423066Y-135608239D01*
X156433924Y-135583084D01*
X156443107Y-135556798D01*
X156450686Y-135529444D01*
X156456731Y-135501085D01*
X156461312Y-135471783D01*
X156464499Y-135441602D01*
X156466969Y-135378854D01*
X156464702Y-135313346D01*
X156458257Y-135245581D01*
X156448195Y-135176062D01*
X156438301Y-135077656D01*
X156426326Y-134903692D01*
X156397021Y-134422850D01*
X156362068Y-133921055D01*
X156343033Y-133720898D01*
X156333223Y-133643760D01*
X156323256Y-133585822D01*
X156283009Y-133406904D01*
X156262017Y-133326223D01*
X156239552Y-133251271D01*
X156214941Y-133181954D01*
X156187515Y-133118180D01*
X156156600Y-133059855D01*
X156139626Y-133032708D01*
X156121527Y-133006888D01*
X156102221Y-132982384D01*
X156081624Y-132959185D01*
X156059651Y-132937279D01*
X156036219Y-132916654D01*
X156011244Y-132897298D01*
X155984642Y-132879201D01*
X155956328Y-132862350D01*
X155926220Y-132846734D01*
X155894233Y-132832341D01*
X155860284Y-132819160D01*
X155824288Y-132807179D01*
X155786161Y-132796386D01*
X155745820Y-132786770D01*
X155703180Y-132778320D01*
X155610670Y-132764868D01*
X151680861Y-132764868D01*
X146434035Y-132764868D01*
X146434035Y-132293036D01*
X146434035Y-132087561D01*
X146434035Y-131897071D01*
X146434035Y-129208899D01*
X146434035Y-122689582D01*
X146434035Y-97389105D01*
X146434035Y-86246161D01*
X146434035Y-85991370D01*
X146434035Y-85955878D01*
X146434035Y-85684699D01*
X146434035Y-85368994D01*
X146434035Y-85030280D01*
X146434035Y-84695380D01*
X146434035Y-81012366D01*
X146443451Y-79765779D01*
X146475242Y-78801935D01*
X146498730Y-78413389D01*
X146526855Y-78080345D01*
X146559298Y-77797742D01*
X146595740Y-77560519D01*
X146635861Y-77363614D01*
X146679344Y-77201967D01*
X146725869Y-77070516D01*
X146775117Y-76964200D01*
X146826770Y-76877958D01*
X146880508Y-76806729D01*
X146992964Y-76689063D01*
X147035394Y-76655016D01*
X147100190Y-76612256D01*
X147184320Y-76562217D01*
X147284748Y-76506333D01*
X147522370Y-76382770D01*
X147788786Y-76253047D01*
X148059729Y-76128641D01*
X148310929Y-76021030D01*
X148421541Y-75977109D01*
X148518117Y-75941692D01*
X148597624Y-75916213D01*
X148657027Y-75902106D01*
X148705246Y-75893091D01*
X148756912Y-75881517D01*
X148810416Y-75867863D01*
X148864149Y-75852610D01*
X148916504Y-75836237D01*
X148965871Y-75819224D01*
X149010642Y-75802049D01*
X149049208Y-75785193D01*
X149181753Y-75728302D01*
X149422323Y-75630681D01*
X150128477Y-75351947D01*
X150969558Y-75026377D01*
X151747450Y-74731360D01*
X151868388Y-74687746D01*
X151989169Y-74647060D01*
X152106579Y-74610190D01*
X152217406Y-74578029D01*
X152318436Y-74551464D01*
X152406458Y-74531388D01*
X152478258Y-74518689D01*
X152507071Y-74515385D01*
X152530623Y-74514259D01*
X152551157Y-74513906D01*
X152571116Y-74512870D01*
X152590395Y-74511188D01*
X152608891Y-74508893D01*
X152626502Y-74506021D01*
X152643123Y-74502607D01*
X152658651Y-74498686D01*
X152672983Y-74494292D01*
X152686017Y-74489462D01*
X152697647Y-74484230D01*
X152707772Y-74478631D01*
X152716287Y-74472699D01*
X152723090Y-74466471D01*
X152725818Y-74463257D01*
X152728078Y-74459982D01*
X152729858Y-74456650D01*
X152731146Y-74453265D01*
X152731928Y-74449833D01*
X152732191Y-74446357D01*
X152733271Y-74442509D01*
X152736474Y-74437996D01*
X152741748Y-74432840D01*
X152749041Y-74427062D01*
X152769467Y-74413731D01*
X152797331Y-74398179D01*
X152832208Y-74380582D01*
X152873675Y-74361116D01*
X152921310Y-74339958D01*
X152974688Y-74317283D01*
X153033386Y-74293267D01*
X153096982Y-74268088D01*
X153237172Y-74214940D01*
X153391871Y-74159249D01*
X153557692Y-74102424D01*
X153889826Y-73988999D01*
X154183897Y-73884189D01*
X154407999Y-73799652D01*
X154483841Y-73768629D01*
X154530226Y-73747047D01*
X154545880Y-73738953D01*
X154562410Y-73731088D01*
X154579674Y-73723491D01*
X154597530Y-73716203D01*
X154615838Y-73709265D01*
X154634455Y-73702717D01*
X154653241Y-73696600D01*
X154672053Y-73690955D01*
X154690750Y-73685822D01*
X154709191Y-73681242D01*
X154727234Y-73677255D01*
X154744738Y-73673902D01*
X154761562Y-73671223D01*
X154777563Y-73669259D01*
X154792600Y-73668052D01*
X154806532Y-73667640D01*
X154820465Y-73667225D01*
X154835504Y-73666007D01*
X154851508Y-73664027D01*
X154868335Y-73661327D01*
X154885842Y-73657948D01*
X154903889Y-73653932D01*
X154922334Y-73649318D01*
X154941035Y-73644149D01*
X154959849Y-73638466D01*
X154978636Y-73632309D01*
X154997254Y-73625721D01*
X155015560Y-73618742D01*
X155033413Y-73611414D01*
X155050672Y-73603777D01*
X155067194Y-73595874D01*
X155082838Y-73587745D01*
X155100897Y-73578677D01*
X155124480Y-73568063D01*
X155186707Y-73542725D01*
X155266486Y-73512783D01*
X155360785Y-73479289D01*
X155466571Y-73443296D01*
X155580811Y-73405857D01*
X155700473Y-73368023D01*
X155822523Y-73330848D01*
X156066005Y-73256367D01*
X156290839Y-73184344D01*
X156472013Y-73123005D01*
X156538412Y-73098911D01*
X156584517Y-73080573D01*
X156743767Y-73024876D01*
X157034460Y-72934760D01*
X157849814Y-72696891D01*
X158709856Y-72458198D01*
X159056411Y-72367052D01*
X159293867Y-72309913D01*
X159372771Y-72291727D01*
X159467410Y-72267770D01*
X159574209Y-72239066D01*
X159689593Y-72206641D01*
X159809984Y-72171522D01*
X159931808Y-72134732D01*
X160051489Y-72097299D01*
X160165449Y-72060249D01*
X160279775Y-72023104D01*
X160400478Y-71985424D01*
X160646433Y-71912620D01*
X160874141Y-71850161D01*
X160972035Y-71825413D01*
X161054426Y-71806373D01*
X161606031Y-71675060D01*
X162505392Y-71450736D01*
X163477367Y-71202837D01*
X164246809Y-71000800D01*
X164627190Y-70900550D01*
X165018156Y-70802253D01*
X165768996Y-70625587D01*
X166097443Y-70554249D01*
X166373625Y-70498931D01*
X166581829Y-70463148D01*
X166706343Y-70450416D01*
X166728786Y-70449960D01*
X166751473Y-70448643D01*
X166774248Y-70446510D01*
X166796957Y-70443605D01*
X166819446Y-70439970D01*
X166841561Y-70435651D01*
X166863146Y-70430690D01*
X166884047Y-70425132D01*
X166904110Y-70419020D01*
X166923180Y-70412399D01*
X166941103Y-70405311D01*
X166957724Y-70397801D01*
X166972889Y-70389913D01*
X166986443Y-70381691D01*
X166998232Y-70373178D01*
X167008101Y-70364417D01*
X167013377Y-70359852D01*
X167020326Y-70355016D01*
X167039051Y-70344591D01*
X167063886Y-70333250D01*
X167094442Y-70321102D01*
X167130330Y-70308256D01*
X167171163Y-70294821D01*
X167216550Y-70280906D01*
X167266104Y-70266620D01*
X167376154Y-70237370D01*
X167498203Y-70207944D01*
X167629139Y-70179211D01*
X167765852Y-70152045D01*
X168476675Y-70012630D01*
X169242110Y-69855109D01*
X170548162Y-69588769D01*
X171825873Y-69344848D01*
X172840999Y-69166490D01*
X173176892Y-69115380D01*
X173359297Y-69096839D01*
X173387752Y-69096082D01*
X173418316Y-69094170D01*
X173450707Y-69091164D01*
X173484643Y-69087123D01*
X173556022Y-69076172D01*
X173630194Y-69061794D01*
X173704901Y-69044464D01*
X173777885Y-69024660D01*
X173813025Y-69013978D01*
X173846888Y-69002856D01*
X173879190Y-68991354D01*
X173909651Y-68979529D01*
X173942910Y-68967029D01*
X173983424Y-68953543D01*
X174083982Y-68924119D01*
X174206854Y-68892272D01*
X174347571Y-68859016D01*
X174501663Y-68825365D01*
X174664661Y-68792333D01*
X174832095Y-68760935D01*
X174999495Y-68732185D01*
X176437910Y-68498267D01*
X176569077Y-68475155D01*
X176698771Y-68448795D01*
X176823629Y-68420107D01*
X176940291Y-68390010D01*
X177045394Y-68359422D01*
X177135576Y-68329262D01*
X177174022Y-68314630D01*
X177207477Y-68300450D01*
X177235522Y-68286835D01*
X177257735Y-68273902D01*
X177281922Y-68258685D01*
X177305452Y-68245200D01*
X177328379Y-68233440D01*
X177350760Y-68223397D01*
X177372652Y-68215067D01*
X177394111Y-68208441D01*
X177415194Y-68203514D01*
X177435957Y-68200278D01*
X177456457Y-68198728D01*
X177476751Y-68198856D01*
X177496894Y-68200656D01*
X177516943Y-68204122D01*
X177536956Y-68209246D01*
X177556987Y-68216022D01*
X177577094Y-68224444D01*
X177597334Y-68234504D01*
X177607560Y-68239490D01*
X177618864Y-68244080D01*
X177644715Y-68252071D01*
X177674906Y-68258476D01*
X177709457Y-68263293D01*
X177748385Y-68266523D01*
X177791710Y-68268165D01*
X177839449Y-68268216D01*
X177891623Y-68266677D01*
X177948249Y-68263547D01*
X178009346Y-68258824D01*
X178074933Y-68252508D01*
X178145028Y-68244598D01*
X178219651Y-68235092D01*
X178298820Y-68223991D01*
X178382553Y-68211293D01*
X178470869Y-68196998D01*
X178821461Y-68140892D01*
X179179019Y-68088522D01*
X179553477Y-68038748D01*
X179954764Y-67990432D01*
X180392812Y-67942433D01*
X180877553Y-67893612D01*
X182026839Y-67788947D01*
X182582639Y-67738664D01*
X183063223Y-67691138D01*
X183417201Y-67651738D01*
X183530654Y-67636763D01*
X183593184Y-67625831D01*
X183650511Y-67615404D01*
X183749095Y-67601894D01*
X183883552Y-67585869D01*
X184048499Y-67567893D01*
X184448324Y-67528353D01*
X184905501Y-67487800D01*
X185402759Y-67443930D01*
X185911719Y-67395435D01*
X186372648Y-67348192D01*
X186725813Y-67308082D01*
X186992206Y-67276851D01*
X187258785Y-67250325D01*
X187553168Y-67226977D01*
X187902975Y-67205279D01*
X188335823Y-67183707D01*
X188879331Y-67160732D01*
X190408797Y-67104468D01*
X191087519Y-67077080D01*
X191715086Y-67045531D01*
X192221644Y-67013720D01*
X192537337Y-66985541D01*
X193269093Y-66908353D01*
X194005518Y-66861983D01*
X194365635Y-66851368D01*
X194715102Y-66849671D01*
X195049980Y-66857299D01*
M02*
