%TF.GenerationSoftware,KiCad,Pcbnew,9.0.8+1*%
%TF.CreationDate,2026-06-11T13:52:37-04:00*%
%TF.ProjectId,om-84_strumplate,6f6d2d38-345f-4737-9472-756d706c6174,rev?*%
%TF.SameCoordinates,Original*%
%TF.FileFunction,Legend,Top*%
%TF.FilePolarity,Positive*%
%FSLAX46Y46*%
G04 Gerber Fmt 4.6, Leading zero omitted, Abs format (unit mm)*
G04 Created by KiCad (PCBNEW 9.0.8+1) date 2026-06-11 13:52:37*
%MOMM*%
%LPD*%
G01*
G04 APERTURE LIST*
%ADD10C,0.100000*%
%ADD11C,1.044999*%
%ADD12C,1.116999*%
%ADD13C,1.000800*%
G04 APERTURE END LIST*
D10*
X82552531Y-155786115D02*
X81552531Y-155786115D01*
X81552531Y-155786115D02*
X81552531Y-155405163D01*
X81552531Y-155405163D02*
X81600150Y-155309925D01*
X81600150Y-155309925D02*
X81647769Y-155262306D01*
X81647769Y-155262306D02*
X81743007Y-155214687D01*
X81743007Y-155214687D02*
X81885864Y-155214687D01*
X81885864Y-155214687D02*
X81981102Y-155262306D01*
X81981102Y-155262306D02*
X82028721Y-155309925D01*
X82028721Y-155309925D02*
X82076340Y-155405163D01*
X82076340Y-155405163D02*
X82076340Y-155786115D01*
X82552531Y-154786115D02*
X81885864Y-154786115D01*
X81552531Y-154786115D02*
X81600150Y-154833734D01*
X81600150Y-154833734D02*
X81647769Y-154786115D01*
X81647769Y-154786115D02*
X81600150Y-154738496D01*
X81600150Y-154738496D02*
X81552531Y-154786115D01*
X81552531Y-154786115D02*
X81647769Y-154786115D01*
X82504912Y-153595639D02*
X82552531Y-153452782D01*
X82552531Y-153452782D02*
X82552531Y-153214687D01*
X82552531Y-153214687D02*
X82504912Y-153119449D01*
X82504912Y-153119449D02*
X82457292Y-153071830D01*
X82457292Y-153071830D02*
X82362054Y-153024211D01*
X82362054Y-153024211D02*
X82266816Y-153024211D01*
X82266816Y-153024211D02*
X82171578Y-153071830D01*
X82171578Y-153071830D02*
X82123959Y-153119449D01*
X82123959Y-153119449D02*
X82076340Y-153214687D01*
X82076340Y-153214687D02*
X82028721Y-153405163D01*
X82028721Y-153405163D02*
X81981102Y-153500401D01*
X81981102Y-153500401D02*
X81933483Y-153548020D01*
X81933483Y-153548020D02*
X81838245Y-153595639D01*
X81838245Y-153595639D02*
X81743007Y-153595639D01*
X81743007Y-153595639D02*
X81647769Y-153548020D01*
X81647769Y-153548020D02*
X81600150Y-153500401D01*
X81600150Y-153500401D02*
X81552531Y-153405163D01*
X81552531Y-153405163D02*
X81552531Y-153167068D01*
X81552531Y-153167068D02*
X81600150Y-153024211D01*
X81885864Y-152738496D02*
X81885864Y-152357544D01*
X81552531Y-152595639D02*
X82409673Y-152595639D01*
X82409673Y-152595639D02*
X82504912Y-152548020D01*
X82504912Y-152548020D02*
X82552531Y-152452782D01*
X82552531Y-152452782D02*
X82552531Y-152357544D01*
X82552531Y-152024210D02*
X81885864Y-152024210D01*
X81552531Y-152024210D02*
X81600150Y-152071829D01*
X81600150Y-152071829D02*
X81647769Y-152024210D01*
X81647769Y-152024210D02*
X81600150Y-151976591D01*
X81600150Y-151976591D02*
X81552531Y-152024210D01*
X81552531Y-152024210D02*
X81647769Y-152024210D01*
X81885864Y-151690877D02*
X81885864Y-151309925D01*
X82552531Y-151548020D02*
X81695388Y-151548020D01*
X81695388Y-151548020D02*
X81600150Y-151500401D01*
X81600150Y-151500401D02*
X81552531Y-151405163D01*
X81552531Y-151405163D02*
X81552531Y-151309925D01*
X81885864Y-151119448D02*
X81885864Y-150738496D01*
X82552531Y-150976591D02*
X81695388Y-150976591D01*
X81695388Y-150976591D02*
X81600150Y-150928972D01*
X81600150Y-150928972D02*
X81552531Y-150833734D01*
X81552531Y-150833734D02*
X81552531Y-150738496D01*
X82504912Y-150024210D02*
X82552531Y-150119448D01*
X82552531Y-150119448D02*
X82552531Y-150309924D01*
X82552531Y-150309924D02*
X82504912Y-150405162D01*
X82504912Y-150405162D02*
X82409673Y-150452781D01*
X82409673Y-150452781D02*
X82028721Y-150452781D01*
X82028721Y-150452781D02*
X81933483Y-150405162D01*
X81933483Y-150405162D02*
X81885864Y-150309924D01*
X81885864Y-150309924D02*
X81885864Y-150119448D01*
X81885864Y-150119448D02*
X81933483Y-150024210D01*
X81933483Y-150024210D02*
X82028721Y-149976591D01*
X82028721Y-149976591D02*
X82123959Y-149976591D01*
X82123959Y-149976591D02*
X82219197Y-150452781D01*
X81885864Y-149548019D02*
X82552531Y-149548019D01*
X81981102Y-149548019D02*
X81933483Y-149500400D01*
X81933483Y-149500400D02*
X81885864Y-149405162D01*
X81885864Y-149405162D02*
X81885864Y-149262305D01*
X81885864Y-149262305D02*
X81933483Y-149167067D01*
X81933483Y-149167067D02*
X82028721Y-149119448D01*
X82028721Y-149119448D02*
X82552531Y-149119448D01*
X82504912Y-148262305D02*
X82552531Y-148357543D01*
X82552531Y-148357543D02*
X82552531Y-148548019D01*
X82552531Y-148548019D02*
X82504912Y-148643257D01*
X82504912Y-148643257D02*
X82409673Y-148690876D01*
X82409673Y-148690876D02*
X82028721Y-148690876D01*
X82028721Y-148690876D02*
X81933483Y-148643257D01*
X81933483Y-148643257D02*
X81885864Y-148548019D01*
X81885864Y-148548019D02*
X81885864Y-148357543D01*
X81885864Y-148357543D02*
X81933483Y-148262305D01*
X81933483Y-148262305D02*
X82028721Y-148214686D01*
X82028721Y-148214686D02*
X82123959Y-148214686D01*
X82123959Y-148214686D02*
X82219197Y-148690876D01*
X82552531Y-147786114D02*
X81885864Y-147786114D01*
X82076340Y-147786114D02*
X81981102Y-147738495D01*
X81981102Y-147738495D02*
X81933483Y-147690876D01*
X81933483Y-147690876D02*
X81885864Y-147595638D01*
X81885864Y-147595638D02*
X81885864Y-147500400D01*
X82552531Y-146405161D02*
X81552531Y-146405161D01*
X82552531Y-145976590D02*
X82028721Y-145976590D01*
X82028721Y-145976590D02*
X81933483Y-146024209D01*
X81933483Y-146024209D02*
X81885864Y-146119447D01*
X81885864Y-146119447D02*
X81885864Y-146262304D01*
X81885864Y-146262304D02*
X81933483Y-146357542D01*
X81933483Y-146357542D02*
X81981102Y-146405161D01*
X82504912Y-145119447D02*
X82552531Y-145214685D01*
X82552531Y-145214685D02*
X82552531Y-145405161D01*
X82552531Y-145405161D02*
X82504912Y-145500399D01*
X82504912Y-145500399D02*
X82409673Y-145548018D01*
X82409673Y-145548018D02*
X82028721Y-145548018D01*
X82028721Y-145548018D02*
X81933483Y-145500399D01*
X81933483Y-145500399D02*
X81885864Y-145405161D01*
X81885864Y-145405161D02*
X81885864Y-145214685D01*
X81885864Y-145214685D02*
X81933483Y-145119447D01*
X81933483Y-145119447D02*
X82028721Y-145071828D01*
X82028721Y-145071828D02*
X82123959Y-145071828D01*
X82123959Y-145071828D02*
X82219197Y-145548018D01*
X82552531Y-144643256D02*
X81885864Y-144643256D01*
X82076340Y-144643256D02*
X81981102Y-144595637D01*
X81981102Y-144595637D02*
X81933483Y-144548018D01*
X81933483Y-144548018D02*
X81885864Y-144452780D01*
X81885864Y-144452780D02*
X81885864Y-144357542D01*
X82504912Y-143643256D02*
X82552531Y-143738494D01*
X82552531Y-143738494D02*
X82552531Y-143928970D01*
X82552531Y-143928970D02*
X82504912Y-144024208D01*
X82504912Y-144024208D02*
X82409673Y-144071827D01*
X82409673Y-144071827D02*
X82028721Y-144071827D01*
X82028721Y-144071827D02*
X81933483Y-144024208D01*
X81933483Y-144024208D02*
X81885864Y-143928970D01*
X81885864Y-143928970D02*
X81885864Y-143738494D01*
X81885864Y-143738494D02*
X81933483Y-143643256D01*
X81933483Y-143643256D02*
X82028721Y-143595637D01*
X82028721Y-143595637D02*
X82123959Y-143595637D01*
X82123959Y-143595637D02*
X82219197Y-144071827D01*
X83591046Y-155643258D02*
X83543427Y-155738496D01*
X83543427Y-155738496D02*
X83495808Y-155786115D01*
X83495808Y-155786115D02*
X83400570Y-155833734D01*
X83400570Y-155833734D02*
X83352951Y-155833734D01*
X83352951Y-155833734D02*
X83257713Y-155786115D01*
X83257713Y-155786115D02*
X83210094Y-155738496D01*
X83210094Y-155738496D02*
X83162475Y-155643258D01*
X83162475Y-155643258D02*
X83162475Y-155452782D01*
X83162475Y-155452782D02*
X83210094Y-155357544D01*
X83210094Y-155357544D02*
X83257713Y-155309925D01*
X83257713Y-155309925D02*
X83352951Y-155262306D01*
X83352951Y-155262306D02*
X83400570Y-155262306D01*
X83400570Y-155262306D02*
X83495808Y-155309925D01*
X83495808Y-155309925D02*
X83543427Y-155357544D01*
X83543427Y-155357544D02*
X83591046Y-155452782D01*
X83591046Y-155452782D02*
X83591046Y-155643258D01*
X83591046Y-155643258D02*
X83638665Y-155738496D01*
X83638665Y-155738496D02*
X83686284Y-155786115D01*
X83686284Y-155786115D02*
X83781522Y-155833734D01*
X83781522Y-155833734D02*
X83971998Y-155833734D01*
X83971998Y-155833734D02*
X84067236Y-155786115D01*
X84067236Y-155786115D02*
X84114856Y-155738496D01*
X84114856Y-155738496D02*
X84162475Y-155643258D01*
X84162475Y-155643258D02*
X84162475Y-155452782D01*
X84162475Y-155452782D02*
X84114856Y-155357544D01*
X84114856Y-155357544D02*
X84067236Y-155309925D01*
X84067236Y-155309925D02*
X83971998Y-155262306D01*
X83971998Y-155262306D02*
X83781522Y-155262306D01*
X83781522Y-155262306D02*
X83686284Y-155309925D01*
X83686284Y-155309925D02*
X83638665Y-155357544D01*
X83638665Y-155357544D02*
X83591046Y-155452782D01*
X84067236Y-154833734D02*
X84114856Y-154786115D01*
X84114856Y-154786115D02*
X84162475Y-154833734D01*
X84162475Y-154833734D02*
X84114856Y-154881353D01*
X84114856Y-154881353D02*
X84067236Y-154833734D01*
X84067236Y-154833734D02*
X84162475Y-154833734D01*
X83162475Y-153881354D02*
X83162475Y-154357544D01*
X83162475Y-154357544D02*
X83638665Y-154405163D01*
X83638665Y-154405163D02*
X83591046Y-154357544D01*
X83591046Y-154357544D02*
X83543427Y-154262306D01*
X83543427Y-154262306D02*
X83543427Y-154024211D01*
X83543427Y-154024211D02*
X83591046Y-153928973D01*
X83591046Y-153928973D02*
X83638665Y-153881354D01*
X83638665Y-153881354D02*
X83733903Y-153833735D01*
X83733903Y-153833735D02*
X83971998Y-153833735D01*
X83971998Y-153833735D02*
X84067236Y-153881354D01*
X84067236Y-153881354D02*
X84114856Y-153928973D01*
X84114856Y-153928973D02*
X84162475Y-154024211D01*
X84162475Y-154024211D02*
X84162475Y-154262306D01*
X84162475Y-154262306D02*
X84114856Y-154357544D01*
X84114856Y-154357544D02*
X84067236Y-154405163D01*
X84162475Y-153405163D02*
X83495808Y-153405163D01*
X83591046Y-153405163D02*
X83543427Y-153357544D01*
X83543427Y-153357544D02*
X83495808Y-153262306D01*
X83495808Y-153262306D02*
X83495808Y-153119449D01*
X83495808Y-153119449D02*
X83543427Y-153024211D01*
X83543427Y-153024211D02*
X83638665Y-152976592D01*
X83638665Y-152976592D02*
X84162475Y-152976592D01*
X83638665Y-152976592D02*
X83543427Y-152928973D01*
X83543427Y-152928973D02*
X83495808Y-152833735D01*
X83495808Y-152833735D02*
X83495808Y-152690878D01*
X83495808Y-152690878D02*
X83543427Y-152595639D01*
X83543427Y-152595639D02*
X83638665Y-152548020D01*
X83638665Y-152548020D02*
X84162475Y-152548020D01*
X84162475Y-152071830D02*
X83495808Y-152071830D01*
X83591046Y-152071830D02*
X83543427Y-152024211D01*
X83543427Y-152024211D02*
X83495808Y-151928973D01*
X83495808Y-151928973D02*
X83495808Y-151786116D01*
X83495808Y-151786116D02*
X83543427Y-151690878D01*
X83543427Y-151690878D02*
X83638665Y-151643259D01*
X83638665Y-151643259D02*
X84162475Y-151643259D01*
X83638665Y-151643259D02*
X83543427Y-151595640D01*
X83543427Y-151595640D02*
X83495808Y-151500402D01*
X83495808Y-151500402D02*
X83495808Y-151357545D01*
X83495808Y-151357545D02*
X83543427Y-151262306D01*
X83543427Y-151262306D02*
X83638665Y-151214687D01*
X83638665Y-151214687D02*
X84162475Y-151214687D01*
X84162475Y-150071830D02*
X83495808Y-149548021D01*
X83495808Y-150071830D02*
X84162475Y-149548021D01*
X83257713Y-148452782D02*
X83210094Y-148405163D01*
X83210094Y-148405163D02*
X83162475Y-148309925D01*
X83162475Y-148309925D02*
X83162475Y-148071830D01*
X83162475Y-148071830D02*
X83210094Y-147976592D01*
X83210094Y-147976592D02*
X83257713Y-147928973D01*
X83257713Y-147928973D02*
X83352951Y-147881354D01*
X83352951Y-147881354D02*
X83448189Y-147881354D01*
X83448189Y-147881354D02*
X83591046Y-147928973D01*
X83591046Y-147928973D02*
X84162475Y-148500401D01*
X84162475Y-148500401D02*
X84162475Y-147881354D01*
X84162475Y-146928973D02*
X84162475Y-147500401D01*
X84162475Y-147214687D02*
X83162475Y-147214687D01*
X83162475Y-147214687D02*
X83305332Y-147309925D01*
X83305332Y-147309925D02*
X83400570Y-147405163D01*
X83400570Y-147405163D02*
X83448189Y-147500401D01*
X84067236Y-146500401D02*
X84114856Y-146452782D01*
X84114856Y-146452782D02*
X84162475Y-146500401D01*
X84162475Y-146500401D02*
X84114856Y-146548020D01*
X84114856Y-146548020D02*
X84067236Y-146500401D01*
X84067236Y-146500401D02*
X84162475Y-146500401D01*
X83162475Y-145548021D02*
X83162475Y-146024211D01*
X83162475Y-146024211D02*
X83638665Y-146071830D01*
X83638665Y-146071830D02*
X83591046Y-146024211D01*
X83591046Y-146024211D02*
X83543427Y-145928973D01*
X83543427Y-145928973D02*
X83543427Y-145690878D01*
X83543427Y-145690878D02*
X83591046Y-145595640D01*
X83591046Y-145595640D02*
X83638665Y-145548021D01*
X83638665Y-145548021D02*
X83733903Y-145500402D01*
X83733903Y-145500402D02*
X83971998Y-145500402D01*
X83971998Y-145500402D02*
X84067236Y-145548021D01*
X84067236Y-145548021D02*
X84114856Y-145595640D01*
X84114856Y-145595640D02*
X84162475Y-145690878D01*
X84162475Y-145690878D02*
X84162475Y-145928973D01*
X84162475Y-145928973D02*
X84114856Y-146024211D01*
X84114856Y-146024211D02*
X84067236Y-146071830D01*
X84162475Y-145071830D02*
X83495808Y-145071830D01*
X83591046Y-145071830D02*
X83543427Y-145024211D01*
X83543427Y-145024211D02*
X83495808Y-144928973D01*
X83495808Y-144928973D02*
X83495808Y-144786116D01*
X83495808Y-144786116D02*
X83543427Y-144690878D01*
X83543427Y-144690878D02*
X83638665Y-144643259D01*
X83638665Y-144643259D02*
X84162475Y-144643259D01*
X83638665Y-144643259D02*
X83543427Y-144595640D01*
X83543427Y-144595640D02*
X83495808Y-144500402D01*
X83495808Y-144500402D02*
X83495808Y-144357545D01*
X83495808Y-144357545D02*
X83543427Y-144262306D01*
X83543427Y-144262306D02*
X83638665Y-144214687D01*
X83638665Y-144214687D02*
X84162475Y-144214687D01*
X84162475Y-143738497D02*
X83495808Y-143738497D01*
X83591046Y-143738497D02*
X83543427Y-143690878D01*
X83543427Y-143690878D02*
X83495808Y-143595640D01*
X83495808Y-143595640D02*
X83495808Y-143452783D01*
X83495808Y-143452783D02*
X83543427Y-143357545D01*
X83543427Y-143357545D02*
X83638665Y-143309926D01*
X83638665Y-143309926D02*
X84162475Y-143309926D01*
X83638665Y-143309926D02*
X83543427Y-143262307D01*
X83543427Y-143262307D02*
X83495808Y-143167069D01*
X83495808Y-143167069D02*
X83495808Y-143024212D01*
X83495808Y-143024212D02*
X83543427Y-142928973D01*
X83543427Y-142928973D02*
X83638665Y-142881354D01*
X83638665Y-142881354D02*
X84162475Y-142881354D01*
X84772419Y-155928972D02*
X84772419Y-155357544D01*
X85772419Y-155643258D02*
X84772419Y-155643258D01*
X85772419Y-154881353D02*
X85724800Y-154976591D01*
X85724800Y-154976591D02*
X85677180Y-155024210D01*
X85677180Y-155024210D02*
X85581942Y-155071829D01*
X85581942Y-155071829D02*
X85296228Y-155071829D01*
X85296228Y-155071829D02*
X85200990Y-155024210D01*
X85200990Y-155024210D02*
X85153371Y-154976591D01*
X85153371Y-154976591D02*
X85105752Y-154881353D01*
X85105752Y-154881353D02*
X85105752Y-154738496D01*
X85105752Y-154738496D02*
X85153371Y-154643258D01*
X85153371Y-154643258D02*
X85200990Y-154595639D01*
X85200990Y-154595639D02*
X85296228Y-154548020D01*
X85296228Y-154548020D02*
X85581942Y-154548020D01*
X85581942Y-154548020D02*
X85677180Y-154595639D01*
X85677180Y-154595639D02*
X85724800Y-154643258D01*
X85724800Y-154643258D02*
X85772419Y-154738496D01*
X85772419Y-154738496D02*
X85772419Y-154881353D01*
X85105752Y-154262305D02*
X85105752Y-153881353D01*
X84772419Y-154119448D02*
X85629561Y-154119448D01*
X85629561Y-154119448D02*
X85724800Y-154071829D01*
X85724800Y-154071829D02*
X85772419Y-153976591D01*
X85772419Y-153976591D02*
X85772419Y-153881353D01*
X85772419Y-153119448D02*
X85248609Y-153119448D01*
X85248609Y-153119448D02*
X85153371Y-153167067D01*
X85153371Y-153167067D02*
X85105752Y-153262305D01*
X85105752Y-153262305D02*
X85105752Y-153452781D01*
X85105752Y-153452781D02*
X85153371Y-153548019D01*
X85724800Y-153119448D02*
X85772419Y-153214686D01*
X85772419Y-153214686D02*
X85772419Y-153452781D01*
X85772419Y-153452781D02*
X85724800Y-153548019D01*
X85724800Y-153548019D02*
X85629561Y-153595638D01*
X85629561Y-153595638D02*
X85534323Y-153595638D01*
X85534323Y-153595638D02*
X85439085Y-153548019D01*
X85439085Y-153548019D02*
X85391466Y-153452781D01*
X85391466Y-153452781D02*
X85391466Y-153214686D01*
X85391466Y-153214686D02*
X85343847Y-153119448D01*
X85772419Y-152500400D02*
X85724800Y-152595638D01*
X85724800Y-152595638D02*
X85629561Y-152643257D01*
X85629561Y-152643257D02*
X84772419Y-152643257D01*
X84772419Y-151500399D02*
X84772419Y-150928971D01*
X85772419Y-151214685D02*
X84772419Y-151214685D01*
X85772419Y-150595637D02*
X84772419Y-150595637D01*
X85772419Y-150167066D02*
X85248609Y-150167066D01*
X85248609Y-150167066D02*
X85153371Y-150214685D01*
X85153371Y-150214685D02*
X85105752Y-150309923D01*
X85105752Y-150309923D02*
X85105752Y-150452780D01*
X85105752Y-150452780D02*
X85153371Y-150548018D01*
X85153371Y-150548018D02*
X85200990Y-150595637D01*
X85772419Y-149690875D02*
X85105752Y-149690875D01*
X84772419Y-149690875D02*
X84820038Y-149738494D01*
X84820038Y-149738494D02*
X84867657Y-149690875D01*
X84867657Y-149690875D02*
X84820038Y-149643256D01*
X84820038Y-149643256D02*
X84772419Y-149690875D01*
X84772419Y-149690875D02*
X84867657Y-149690875D01*
X85724800Y-148786114D02*
X85772419Y-148881352D01*
X85772419Y-148881352D02*
X85772419Y-149071828D01*
X85772419Y-149071828D02*
X85724800Y-149167066D01*
X85724800Y-149167066D02*
X85677180Y-149214685D01*
X85677180Y-149214685D02*
X85581942Y-149262304D01*
X85581942Y-149262304D02*
X85296228Y-149262304D01*
X85296228Y-149262304D02*
X85200990Y-149214685D01*
X85200990Y-149214685D02*
X85153371Y-149167066D01*
X85153371Y-149167066D02*
X85105752Y-149071828D01*
X85105752Y-149071828D02*
X85105752Y-148881352D01*
X85105752Y-148881352D02*
X85153371Y-148786114D01*
X85772419Y-148357542D02*
X84772419Y-148357542D01*
X85391466Y-148262304D02*
X85772419Y-147976590D01*
X85105752Y-147976590D02*
X85486704Y-148357542D01*
X85105752Y-147548018D02*
X85772419Y-147548018D01*
X85200990Y-147548018D02*
X85153371Y-147500399D01*
X85153371Y-147500399D02*
X85105752Y-147405161D01*
X85105752Y-147405161D02*
X85105752Y-147262304D01*
X85105752Y-147262304D02*
X85153371Y-147167066D01*
X85153371Y-147167066D02*
X85248609Y-147119447D01*
X85248609Y-147119447D02*
X85772419Y-147119447D01*
X85724800Y-146262304D02*
X85772419Y-146357542D01*
X85772419Y-146357542D02*
X85772419Y-146548018D01*
X85772419Y-146548018D02*
X85724800Y-146643256D01*
X85724800Y-146643256D02*
X85629561Y-146690875D01*
X85629561Y-146690875D02*
X85248609Y-146690875D01*
X85248609Y-146690875D02*
X85153371Y-146643256D01*
X85153371Y-146643256D02*
X85105752Y-146548018D01*
X85105752Y-146548018D02*
X85105752Y-146357542D01*
X85105752Y-146357542D02*
X85153371Y-146262304D01*
X85153371Y-146262304D02*
X85248609Y-146214685D01*
X85248609Y-146214685D02*
X85343847Y-146214685D01*
X85343847Y-146214685D02*
X85439085Y-146690875D01*
X85724800Y-145833732D02*
X85772419Y-145738494D01*
X85772419Y-145738494D02*
X85772419Y-145548018D01*
X85772419Y-145548018D02*
X85724800Y-145452780D01*
X85724800Y-145452780D02*
X85629561Y-145405161D01*
X85629561Y-145405161D02*
X85581942Y-145405161D01*
X85581942Y-145405161D02*
X85486704Y-145452780D01*
X85486704Y-145452780D02*
X85439085Y-145548018D01*
X85439085Y-145548018D02*
X85439085Y-145690875D01*
X85439085Y-145690875D02*
X85391466Y-145786113D01*
X85391466Y-145786113D02*
X85296228Y-145833732D01*
X85296228Y-145833732D02*
X85248609Y-145833732D01*
X85248609Y-145833732D02*
X85153371Y-145786113D01*
X85153371Y-145786113D02*
X85105752Y-145690875D01*
X85105752Y-145690875D02*
X85105752Y-145548018D01*
X85105752Y-145548018D02*
X85153371Y-145452780D01*
X85724800Y-145024208D02*
X85772419Y-144928970D01*
X85772419Y-144928970D02*
X85772419Y-144738494D01*
X85772419Y-144738494D02*
X85724800Y-144643256D01*
X85724800Y-144643256D02*
X85629561Y-144595637D01*
X85629561Y-144595637D02*
X85581942Y-144595637D01*
X85581942Y-144595637D02*
X85486704Y-144643256D01*
X85486704Y-144643256D02*
X85439085Y-144738494D01*
X85439085Y-144738494D02*
X85439085Y-144881351D01*
X85439085Y-144881351D02*
X85391466Y-144976589D01*
X85391466Y-144976589D02*
X85296228Y-145024208D01*
X85296228Y-145024208D02*
X85248609Y-145024208D01*
X85248609Y-145024208D02*
X85153371Y-144976589D01*
X85153371Y-144976589D02*
X85105752Y-144881351D01*
X85105752Y-144881351D02*
X85105752Y-144738494D01*
X85105752Y-144738494D02*
X85153371Y-144643256D01*
X85248609Y-143405160D02*
X85248609Y-142643256D01*
X85534323Y-142643256D02*
X85534323Y-143405160D01*
X84772419Y-141214684D02*
X84772419Y-141119446D01*
X84772419Y-141119446D02*
X84820038Y-141024208D01*
X84820038Y-141024208D02*
X84867657Y-140976589D01*
X84867657Y-140976589D02*
X84962895Y-140928970D01*
X84962895Y-140928970D02*
X85153371Y-140881351D01*
X85153371Y-140881351D02*
X85391466Y-140881351D01*
X85391466Y-140881351D02*
X85581942Y-140928970D01*
X85581942Y-140928970D02*
X85677180Y-140976589D01*
X85677180Y-140976589D02*
X85724800Y-141024208D01*
X85724800Y-141024208D02*
X85772419Y-141119446D01*
X85772419Y-141119446D02*
X85772419Y-141214684D01*
X85772419Y-141214684D02*
X85724800Y-141309922D01*
X85724800Y-141309922D02*
X85677180Y-141357541D01*
X85677180Y-141357541D02*
X85581942Y-141405160D01*
X85581942Y-141405160D02*
X85391466Y-141452779D01*
X85391466Y-141452779D02*
X85153371Y-141452779D01*
X85153371Y-141452779D02*
X84962895Y-141405160D01*
X84962895Y-141405160D02*
X84867657Y-141357541D01*
X84867657Y-141357541D02*
X84820038Y-141309922D01*
X84820038Y-141309922D02*
X84772419Y-141214684D01*
X85677180Y-140452779D02*
X85724800Y-140405160D01*
X85724800Y-140405160D02*
X85772419Y-140452779D01*
X85772419Y-140452779D02*
X85724800Y-140500398D01*
X85724800Y-140500398D02*
X85677180Y-140452779D01*
X85677180Y-140452779D02*
X85772419Y-140452779D01*
X84772419Y-139548018D02*
X84772419Y-139738494D01*
X84772419Y-139738494D02*
X84820038Y-139833732D01*
X84820038Y-139833732D02*
X84867657Y-139881351D01*
X84867657Y-139881351D02*
X85010514Y-139976589D01*
X85010514Y-139976589D02*
X85200990Y-140024208D01*
X85200990Y-140024208D02*
X85581942Y-140024208D01*
X85581942Y-140024208D02*
X85677180Y-139976589D01*
X85677180Y-139976589D02*
X85724800Y-139928970D01*
X85724800Y-139928970D02*
X85772419Y-139833732D01*
X85772419Y-139833732D02*
X85772419Y-139643256D01*
X85772419Y-139643256D02*
X85724800Y-139548018D01*
X85724800Y-139548018D02*
X85677180Y-139500399D01*
X85677180Y-139500399D02*
X85581942Y-139452780D01*
X85581942Y-139452780D02*
X85343847Y-139452780D01*
X85343847Y-139452780D02*
X85248609Y-139500399D01*
X85248609Y-139500399D02*
X85200990Y-139548018D01*
X85200990Y-139548018D02*
X85153371Y-139643256D01*
X85153371Y-139643256D02*
X85153371Y-139833732D01*
X85153371Y-139833732D02*
X85200990Y-139928970D01*
X85200990Y-139928970D02*
X85248609Y-139976589D01*
X85248609Y-139976589D02*
X85343847Y-140024208D01*
X85772419Y-139024208D02*
X85105752Y-139024208D01*
X85200990Y-139024208D02*
X85153371Y-138976589D01*
X85153371Y-138976589D02*
X85105752Y-138881351D01*
X85105752Y-138881351D02*
X85105752Y-138738494D01*
X85105752Y-138738494D02*
X85153371Y-138643256D01*
X85153371Y-138643256D02*
X85248609Y-138595637D01*
X85248609Y-138595637D02*
X85772419Y-138595637D01*
X85248609Y-138595637D02*
X85153371Y-138548018D01*
X85153371Y-138548018D02*
X85105752Y-138452780D01*
X85105752Y-138452780D02*
X85105752Y-138309923D01*
X85105752Y-138309923D02*
X85153371Y-138214684D01*
X85153371Y-138214684D02*
X85248609Y-138167065D01*
X85248609Y-138167065D02*
X85772419Y-138167065D01*
X85772419Y-137690875D02*
X85105752Y-137690875D01*
X85200990Y-137690875D02*
X85153371Y-137643256D01*
X85153371Y-137643256D02*
X85105752Y-137548018D01*
X85105752Y-137548018D02*
X85105752Y-137405161D01*
X85105752Y-137405161D02*
X85153371Y-137309923D01*
X85153371Y-137309923D02*
X85248609Y-137262304D01*
X85248609Y-137262304D02*
X85772419Y-137262304D01*
X85248609Y-137262304D02*
X85153371Y-137214685D01*
X85153371Y-137214685D02*
X85105752Y-137119447D01*
X85105752Y-137119447D02*
X85105752Y-136976590D01*
X85105752Y-136976590D02*
X85153371Y-136881351D01*
X85153371Y-136881351D02*
X85248609Y-136833732D01*
X85248609Y-136833732D02*
X85772419Y-136833732D01*
X79580000Y-135900000D02*
X87900000Y-135900000D01*
X87900000Y-157400000D01*
X79580000Y-157400000D01*
X79580000Y-135900000D01*
%LPC*%
D11*
X186554418Y-72093283D02*
X172958165Y-72093283D01*
X172958165Y-72093283D02*
X172958165Y-76513876D01*
X172958165Y-76513876D02*
X186541936Y-76513876D01*
X186656621Y-83407492D02*
X172958165Y-83407492D01*
X172958165Y-83407492D02*
X172958165Y-87828085D01*
X172958165Y-87828085D02*
X186644139Y-87828085D01*
X186656621Y-94712423D02*
X172958165Y-94712423D01*
X172958165Y-94712423D02*
X172958165Y-99133017D01*
X172958165Y-99133017D02*
X186644139Y-99133017D01*
X186656621Y-105985342D02*
X172958165Y-105985342D01*
X172958165Y-105985342D02*
X172958165Y-110405935D01*
X172958165Y-110405935D02*
X186644139Y-110405935D01*
X186656621Y-117306387D02*
X172958165Y-117306387D01*
X172958165Y-117306387D02*
X172958165Y-121726980D01*
X172958165Y-121726980D02*
X186644139Y-121726980D01*
X186656621Y-128515158D02*
X172958165Y-128515158D01*
X172958165Y-128515158D02*
X172958165Y-132935751D01*
X172958165Y-132935751D02*
X186644139Y-132935751D01*
X186656621Y-139820151D02*
X172958165Y-139820151D01*
X172958165Y-139820151D02*
X172958165Y-144240744D01*
X172958165Y-144240744D02*
X186644139Y-144240744D01*
X186656621Y-151109121D02*
X172958165Y-151109121D01*
X172958165Y-151109121D02*
X172958165Y-155529715D01*
X172958165Y-155529715D02*
X186644139Y-155529715D01*
X186656621Y-162317892D02*
X172958165Y-162317892D01*
X172958165Y-162317892D02*
X172958165Y-166738486D01*
X172958165Y-166738486D02*
X186644139Y-166738486D01*
X186656621Y-173606863D02*
X172958165Y-173606863D01*
X172958165Y-173606863D02*
X172958165Y-178027456D01*
X172958165Y-178027456D02*
X186644139Y-178027456D01*
X186656621Y-184879782D02*
X172958165Y-184879782D01*
X172958165Y-184879782D02*
X172958165Y-189300375D01*
X172958165Y-189300375D02*
X186644139Y-189300375D01*
X186656621Y-196120627D02*
X172958165Y-196120627D01*
X172958165Y-196120627D02*
X172958165Y-200541220D01*
X172958165Y-200541220D02*
X186644139Y-200541220D01*
X186656621Y-207393545D02*
X172958165Y-207393545D01*
X172958165Y-207393545D02*
X172958165Y-211814139D01*
X172958165Y-211814139D02*
X186644139Y-211814139D01*
D12*
X188280156Y-146578055D02*
X174945653Y-146578055D01*
X174945653Y-146578055D02*
X174945653Y-148791006D01*
X174945622Y-69804983D02*
X188280126Y-69804983D01*
X188280126Y-69804983D02*
X188309026Y-216151571D01*
X188309026Y-216151571D02*
X173459372Y-214102912D01*
X159075780Y-212118551D01*
X159075780Y-212118551D02*
X159075780Y-183891012D01*
X159075780Y-183891012D02*
X151143712Y-183891012D01*
X188280126Y-78892813D02*
X174945622Y-78892813D01*
X188280126Y-81105673D02*
X174945622Y-81105673D01*
X188280126Y-85675741D02*
X174945622Y-85675741D01*
X188280126Y-74354757D02*
X174945622Y-74354757D01*
X188280126Y-90213736D02*
X174945622Y-90213736D01*
X188280126Y-92426596D02*
X174945622Y-92426596D01*
X188280126Y-96996664D02*
X174945622Y-96996664D01*
X188280126Y-101454519D02*
X174945622Y-101454519D01*
X188280126Y-103667380D02*
X174945622Y-103667380D01*
X188280126Y-108237448D02*
X174945622Y-108237448D01*
X188280126Y-112695364D02*
X174945622Y-112695364D01*
X188280126Y-114908224D02*
X174945622Y-114908224D01*
X188280126Y-119478293D02*
X174945622Y-119478293D01*
X188280126Y-124032400D02*
X174945622Y-124032400D01*
X188280126Y-126245260D02*
X174945622Y-126245260D01*
X188280126Y-130815329D02*
X174945622Y-130815329D01*
X188280126Y-135209097D02*
X174945622Y-135209097D01*
X188280126Y-137421957D02*
X174945622Y-137421957D01*
X188280126Y-141992026D02*
X174945622Y-141992026D01*
X188280126Y-148791006D02*
X174945653Y-148791006D01*
X188280126Y-153361075D02*
X174945622Y-153361075D01*
X188280126Y-157786886D02*
X174945622Y-157786886D01*
X188280126Y-159999746D02*
X174945622Y-159999746D01*
X188280126Y-164569815D02*
X174945622Y-164569815D01*
X188280126Y-168995657D02*
X174945622Y-168995657D01*
X188280126Y-171208517D02*
X174945622Y-171208517D01*
X188280126Y-175778586D02*
X174945622Y-175778586D01*
X188280126Y-180348746D02*
X174945622Y-180348746D01*
X188280126Y-182561606D02*
X174945622Y-182561606D01*
X188280126Y-187131674D02*
X174945622Y-187131674D01*
X188280126Y-191621664D02*
X174945622Y-191621664D01*
X188280126Y-193834524D02*
X174945622Y-193834524D01*
X188280126Y-198404593D02*
X174945622Y-198404593D01*
X188280126Y-202830435D02*
X174945622Y-202830435D01*
X188280126Y-205043295D02*
X174945622Y-205043295D01*
X188280126Y-209613363D02*
X174945622Y-209613363D01*
X159075749Y-188070883D02*
X153336461Y-188070883D01*
X159075749Y-203079977D02*
X153336461Y-203079977D01*
X159075749Y-191775076D02*
X151143682Y-191775076D01*
X159075749Y-199215536D02*
X151143682Y-199215536D01*
X159075749Y-206816336D02*
X151143682Y-206816336D01*
D13*
X157393224Y-201179068D02*
X151560338Y-201179068D01*
X151560338Y-201179068D02*
X151560338Y-204944143D01*
X151560338Y-204944143D02*
X157381749Y-204944143D01*
X157393224Y-186208670D02*
X151560338Y-186208670D01*
X151560338Y-186208670D02*
X151560338Y-189973746D01*
X151560338Y-189973746D02*
X157381749Y-189973746D01*
%LPD*%
M02*
