<?xml version="1.0" encoding="UTF-8" standalone="no"?>
<svg
   width="117.6626mm"
   height="152.2789mm"
   viewBox="0 0 117.6626 152.2789"
   version="1.1"
   id="svg8"
   inkscape:version="1.2.2 (b0a8486541, 2022-12-01)"
   sodipodi:docname="strumplate_outline_flex.svg"
   xml:space="preserve"
   xmlns:inkscape="http://www.inkscape.org/namespaces/inkscape"
   xmlns:sodipodi="http://sodipodi.sourceforge.net/DTD/sodipodi-0.dtd"
   xmlns="http://www.w3.org/2000/svg"
   xmlns:svg="http://www.w3.org/2000/svg"
   xmlns:rdf="http://www.w3.org/1999/02/22-rdf-syntax-ns#"
   xmlns:cc="http://creativecommons.org/ns#"
   xmlns:dc="http://purl.org/dc/elements/1.1/"><defs
     id="defs2"><pattern
       id="grid"
       width="40"
       height="40"
       patternUnits="userSpaceOnUse"><path
         d="M 40 0 L 0 0 0 40"
         fill="none"
         stroke="#ddd"
         stroke-width="1"
         id="path23066" /></pattern><pattern
       id="grid-0"
       width="40"
       height="40"
       patternUnits="userSpaceOnUse"><path
         d="M 40 0 L 0 0 0 40"
         fill="none"
         stroke="#ddd"
         stroke-width="1"
         id="path23381" /></pattern></defs><sodipodi:namedview
     id="base"
     pagecolor="#ffffff"
     bordercolor="#666666"
     borderopacity="1.0"
     inkscape:pageopacity="0.0"
     inkscape:pageshadow="2"
     inkscape:zoom="2.8919896"
     inkscape:cx="327.80201"
     inkscape:cy="339.38573"
     inkscape:document-units="mm"
     inkscape:current-layer="layer2"
     showgrid="true"
     inkscape:window-width="3840"
     inkscape:window-height="2106"
     inkscape:window-x="0"
     inkscape:window-y="0"
     inkscape:window-maximized="1"
     inkscape:pagecheckerboard="0"
     inkscape:document-rotation="0"
     units="mm"
     inkscape:showpageshadow="2"
     inkscape:deskcolor="#d1d1d1"
     showguides="false"><inkscape:grid
       type="xygrid"
       id="grid9"
       units="mm"
       originx="-430.41743"
       originy="-382.27814" /></sodipodi:namedview><metadata
     id="metadata5"><rdf:RDF><cc:Work
         rdf:about=""><dc:format>image/svg+xml</dc:format><dc:type
           rdf:resource="http://purl.org/dc/dcmitype/StillImage" /></cc:Work></rdf:RDF></metadata><g
     inkscape:label="bed outline"
     inkscape:groupmode="layer"
     id="layer1"
     transform="translate(-430.41744,370.72187)"
     style="display:none"><text
       xml:space="preserve"
       style="font-style:normal;font-weight:normal;font-size:10.5833px;line-height:1.25;font-family:sans-serif;letter-spacing:0px;word-spacing:0px;fill:#000000;fill-opacity:1;stroke:none;stroke-width:0.264583"
       x="51.404758"
       y="135.22618"
       id="text817" /></g><g
     inkscape:groupmode="layer"
     id="layer2"
     inkscape:label="layer1"
     transform="translate(-430.41744,-382.27813)"><path
       style="fill:none;stroke:#000000;stroke-width:0.485;stroke-dasharray:none;stroke-opacity:1"
       d="m 544.87568,534.15953 c -1.19547,-0.14603 -4.40515,-0.58696 -6.18067,-0.84907 -0.48895,-0.0722 -1.40335,-0.20326 -2.032,-0.29128 -0.62865,-0.088 -1.6764,-0.24189 -2.32833,-0.34192 -0.65194,-0.10002 -1.56634,-0.23209 -2.032,-0.29347 -0.46567,-0.0614 -1.36102,-0.18888 -1.98967,-0.28333 -0.62865,-0.0944 -1.27635,-0.18916 -1.43933,-0.21048 -0.33768,-0.0442 -2.07653,-0.28614 -2.83634,-0.3947 -0.2794,-0.0399 -0.8128,-0.11343 -1.18533,-0.16336 -0.37253,-0.0499 -0.86783,-0.13012 -1.10067,-0.17818 -0.23283,-0.0481 -0.63288,-0.10309 -0.889,-0.12226 -0.25611,-0.0192 -0.65616,-0.0754 -0.889,-0.12505 -0.23283,-0.0496 -0.84243,-0.14816 -1.35466,-0.21905 -0.51224,-0.0709 -1.02659,-0.16415 -1.143,-0.20725 -0.11642,-0.0431 -0.49742,-0.1 -0.84667,-0.12637 -0.61548,-0.0465 -2.26232,-0.27636 -3.38667,-0.47268 -0.30268,-0.0528 -0.79798,-0.12684 -1.10066,-0.16443 -1.76752,-0.21948 -3.48997,-0.50996 -3.556,-0.59969 -0.0233,-0.0316 -0.30904,-0.0775 -0.635,-0.10201 -0.68745,-0.0516 -0.82847,-0.0713 -2.58234,-0.36051 -1.47136,-0.24263 -1.58145,-0.26016 -2.413,-0.384 -0.32596,-0.0485 -0.78316,-0.12269 -1.016,-0.16478 -0.23283,-0.0421 -0.91863,-0.15793 -1.524,-0.25744 -4.46884,-0.73457 -4.93137,-0.6233 -4.93137,-2.47869 v -0.79223 -0.29702 -14.54519 -1.56633 -6.20183 -0.27527 -3.28083 -3.6194 -1.3335 -0.99484 -0.33866 -0.33867 -2.413 -0.21167 -0.0847 -9.37684 -0.10583 -1.35467 -1.35466 -0.34017 -0.63839 c 0,-0.78457 1.10156,-0.51204 3.57999,-0.52073 h 2.2036 0.0578 0.51293 0.45509 0.11582 0.18771 0.18256 0.62721 c 0.63517,-0.0113 1.20398,-0.29554 1.43018,-0.41264 l 0.23237,-0.1203 0.14435,-0.33867 -0.0758,-1.397 -0.10807,-0.33866 h -0.0847 -0.42333 -0.67028 -0.6985 -1.38289 -0.39086 -0.22297 -1.37584 -8.509 -7.8598 3.82396 -5.90544 -8.86919 -0.18639 -0.77761 -6.8053 -6.90589 1.03716 -8.44194 -9.51089 -1.393 -4.13456 -6.68251 v 0 0 0 0 -5.24923 -3.49955 -0.69145 -1.016 -1.016 -0.67733 -0.67734 -1.016 -1.016 -0.33866 -0.33867 -0.33867 -0.33866 -0.67734 -0.67733 -0.9525 -2.78973 0 0 0 h 3.17496 0.66261 0.10583 4.33272 60.26151 3.81 3.2385 0.27517 0.42027 c 0.58082,0.0761 0.64897,-0.24516 0.58663,-0.6197 -0.0234,-0.14083 -0.0714,-1.33766 -0.12494,-1.59024 -0.10782,-0.50883 -0.1926,-0.76135 -0.71258,-0.82095 h -3.92981 -5.24682 v 0 -0.47184 -0.20549 -0.1905 -2.68817 -6.51933 -25.30049 -11.14296 -0.25479 -0.0355 -0.27118 -0.31569 -0.33871 -0.33489 -3.683 c -0.007,-3.73722 0.25189,-4.02662 0.55892,-4.32331 0.16126,-0.1558 1.40626,-0.74459 1.66407,-0.78697 0.12257,-0.0202 0.29905,-0.0728 0.39218,-0.11692 0.1874,-0.0888 1.79123,-0.71524 2.69825,-1.05384 0.31986,-0.11941 0.67229,-0.21711 0.78317,-0.21711 0.11087,0 0.20158,-0.0306 0.20158,-0.0679 0,-0.0374 0.37148,-0.19214 0.8255,-0.34393 0.45403,-0.1518 0.89166,-0.31172 0.97252,-0.35539 0.0809,-0.0437 0.2052,-0.0794 0.27631,-0.0794 0.0711,0 0.19546,-0.036 0.27632,-0.0799 0.0809,-0.044 0.41372,-0.15957 0.73968,-0.25691 0.32597,-0.0973 0.66887,-0.20996 0.762,-0.25026 0.21377,-0.0925 2.25723,-0.67377 2.70934,-0.77065 0.18626,-0.0399 0.57848,-0.15227 0.87159,-0.24967 0.29312,-0.0974 0.69317,-0.21165 0.889,-0.25389 0.38137,-0.0822 2.42375,-0.59762 3.19241,-0.80556 0.98627,-0.26682 2.25306,-0.55029 2.45956,-0.55037 0.11875,-5e-5 0.25454,-0.0387 0.30176,-0.086 0.0472,-0.0472 0.38822,-0.14278 0.75776,-0.21236 0.36956,-0.0696 1.03387,-0.2032 1.47625,-0.29693 1.65621,-0.3509 3.86144,-0.75705 4.11716,-0.75826 0.14565,-8.5e-4 0.3933,-0.0535 0.55034,-0.11731 0.15702,-0.0638 0.64745,-0.17512 1.08983,-0.24733 0.44239,-0.0722 1.08966,-0.17747 1.43841,-0.23393 0.34873,-0.0565 0.71765,-0.1574 0.81981,-0.22435 0.13088,-0.0858 0.23121,-0.0974 0.33962,-0.0394 0.10332,0.0553 0.39025,0.043 0.87351,-0.0375 0.93444,-0.15561 1.8373,-0.25922 3.55599,-0.40804 0.76835,-0.0665 1.4732,-0.13994 1.56633,-0.16312 0.0931,-0.0232 0.68368,-0.0853 1.31233,-0.13804 0.62865,-0.0528 1.4478,-0.13361 1.82034,-0.17971 0.73471,-0.0909 1.17674,-0.11535 3.683,-0.2036 0.90805,-0.032 1.86589,-0.0855 2.12853,-0.11892 1.91713,-0.24405 4.22018,-0.1939 4.22018,0.42679 v 0.0483 -0.0847 0.38286 0.47501 0.15439 5.23695 0.1578 0.63247 0.79471 0.13796 7.92906 0.0423 0.67733 1.73567 0.29633 5.461 0.16933 0.29634 1.27 3.48825 1.67219 1.86692 3.18757 0.28373 25.73867 14.4493 0.15316 0.2827 0.0585 0.508 2.032 1.73566 3.72534 4.04283 0.6985 1.0496 1.011 6.42224 6.12216 0.29633 1.05834 4.91066 0.21167 1.27 0.254 0.3175 1.4605 1.24883 0.99484 0.77611 1.06573 0.15522 1.85527 0.21167 0.21166 2.05317 1.92617 -0.0353 0.15521 2.14364 0.762 2.05811 0.40165 0.66282 -0.0521 0.53416 0.86284 0.33367 0.38599 0.48684 0.3175 0.14816 0.635 0.14817 0.55033 0.33867 0.43522 0.78689 0.21722 0.21639 0.3424 0.37255 1.2065 6.05498 c -0.0142,6.61693 0.0345,6.35325 -2.96412,5.98695 z"
       id="path25459"
       sodipodi:nodetypes="csssssssssssssssssssssssccccccccccccccccccccscccccccccsccccccccccccccccccccccccccccccccccccccccccccccccccccccccccccssccasccccccccccccccsssssssssssssssssssscssssssssssssscccccccccccccccccccccccccccccccccccccccccccccccccccccccccccccccccccccccccccccccccccccc" /><g
       id="g23450"
       transform="matrix(0.26458333,0,0,0.26458333,107.60253,429.64978)"><!-- Repeating pattern: tooth, space, tooth, tooth --></g><g
       id="g23490"
       transform="matrix(0.26458333,0,0,0.26458333,107.60253,429.64978)" /><g
       fill="#1a1a1a"
       id="g23522"
       transform="matrix(0.26458333,0,0,0.26458333,107.60253,429.64978)" /><g
       aria-label="Ribbon Connector"
       id="text23530"
       style="font-size:28px;font-family:monospace;fill:#444444"
       transform="matrix(0.26458333,0,0,0.26458333,107.60253,429.64978)" /></g><g
     inkscape:groupmode="layer"
     id="layer3"
     inkscape:label="layer2"
     transform="translate(-430.41744,-382.27813)" /><g
     inkscape:groupmode="layer"
     id="layer4"
     inkscape:label="layer3"
     transform="translate(-430.41744,-382.27813)" /><g
     inkscape:groupmode="layer"
     id="layer5"
     inkscape:label="layer4"
     transform="translate(-430.41744,-382.27813)" /><g
     inkscape:groupmode="layer"
     id="layer6"
     inkscape:label="layer5"
     transform="translate(-430.41744,-382.27813)" /><g
     inkscape:groupmode="layer"
     id="layer7"
     inkscape:label="layer6"
     transform="translate(-430.41744,-382.27813)" /><g
     inkscape:groupmode="layer"
     id="layer8"
     inkscape:label="layer7"
     transform="translate(-430.41744,-382.27813)" /><g
     inkscape:groupmode="layer"
     id="layer9"
     inkscape:label="layer8"
     transform="translate(-430.41744,-382.27813)" /><g
     inkscape:groupmode="layer"
     id="layer10"
     inkscape:label="layer9"
     transform="translate(-430.41744,-382.27813)" /><g
     inkscape:groupmode="layer"
     id="layer11"
     inkscape:label="layer10"
     transform="translate(-430.41744,-382.27813)" /></svg>
