<?xml version="1.0" encoding="UTF-8" standalone="no"?>
<svg
   width="900mm"
   height="1050mm"
   viewBox="0 0 900 1050"
   version="1.1"
   id="svg8"
   inkscape:version="1.2.2 (b0a8486541, 2022-12-01)"
   sodipodi:docname="strumplate_outline_flex.svg"
   xml:space="preserve"
   xmlns:inkscape="http://www.inkscape.org/namespaces/inkscape"
   xmlns:sodipodi="http://sodipodi.sourceforge.net/DTD/sodipodi-0.dtd"
   xmlns="http://www.w3.org/2000/svg"
   xmlns:svg="http://www.w3.org/2000/svg"
   xmlns:rdf="http://www.w3.org/1999/02/22-rdf-syntax-ns#"
   xmlns:cc="http://creativecommons.org/ns#"
   xmlns:dc="http://purl.org/dc/elements/1.1/"><defs
     id="defs2"><pattern
       id="grid"
       width="40"
       height="40"
       patternUnits="userSpaceOnUse"><path
         d="M 40 0 L 0 0 0 40"
         fill="none"
         stroke="#ddd"
         stroke-width="1"
         id="path23066" /></pattern><pattern
       id="grid-0"
       width="40"
       height="40"
       patternUnits="userSpaceOnUse"><path
         d="M 40 0 L 0 0 0 40"
         fill="none"
         stroke="#ddd"
         stroke-width="1"
         id="path23381" /></pattern></defs><sodipodi:namedview
     id="base"
     pagecolor="#ffffff"
     bordercolor="#666666"
     borderopacity="1.0"
     inkscape:pageopacity="0.0"
     inkscape:pageshadow="2"
     inkscape:zoom="1.3133328"
     inkscape:cx="1089.5943"
     inkscape:cy="1613.0717"
     inkscape:document-units="mm"
     inkscape:current-layer="layer2"
     showgrid="true"
     inkscape:window-width="3840"
     inkscape:window-height="2106"
     inkscape:window-x="0"
     inkscape:window-y="0"
     inkscape:window-maximized="1"
     inkscape:pagecheckerboard="0"
     inkscape:document-rotation="0"
     units="mm"
     inkscape:showpageshadow="2"
     inkscape:deskcolor="#d1d1d1"><inkscape:grid
       type="xygrid"
       id="grid9"
       units="mm" /></sodipodi:namedview><metadata
     id="metadata5"><rdf:RDF><cc:Work
         rdf:about=""><dc:format>image/svg+xml</dc:format><dc:type
           rdf:resource="http://purl.org/dc/dcmitype/StillImage" /></cc:Work></rdf:RDF></metadata><g
     inkscape:label="bed outline"
     inkscape:groupmode="layer"
     id="layer1"
     transform="translate(0,753)"
     style="display:none"><text
       xml:space="preserve"
       style="font-style:normal;font-weight:normal;font-size:10.5833px;line-height:1.25;font-family:sans-serif;letter-spacing:0px;word-spacing:0px;fill:#000000;fill-opacity:1;stroke:none;stroke-width:0.264583"
       x="51.404758"
       y="135.22618"
       id="text817" /></g><g
     inkscape:groupmode="layer"
     id="layer2"
     inkscape:label="layer1"><path
       style="fill:none;stroke:#000000;stroke-width:0.485;stroke-dasharray:none;stroke-opacity:1"
       d="m 544.87568,534.15953 c -1.19547,-0.14603 -4.40515,-0.58696 -6.18067,-0.84907 -0.48895,-0.0722 -1.40335,-0.20326 -2.032,-0.29128 -0.62865,-0.088 -1.6764,-0.24189 -2.32833,-0.34192 -0.65194,-0.10002 -1.56634,-0.23209 -2.032,-0.29347 -0.46567,-0.0614 -1.36102,-0.18888 -1.98967,-0.28333 -0.62865,-0.0944 -1.27635,-0.18916 -1.43933,-0.21048 -0.33768,-0.0442 -2.07653,-0.28614 -2.83634,-0.3947 -0.2794,-0.0399 -0.8128,-0.11343 -1.18533,-0.16336 -0.37253,-0.0499 -0.86783,-0.13012 -1.10067,-0.17818 -0.23283,-0.0481 -0.63288,-0.10309 -0.889,-0.12226 -0.25611,-0.0192 -0.65616,-0.0754 -0.889,-0.12505 -0.23283,-0.0496 -0.84243,-0.14816 -1.35466,-0.21905 -0.51224,-0.0709 -1.02659,-0.16415 -1.143,-0.20725 -0.11642,-0.0431 -0.49742,-0.1 -0.84667,-0.12637 -0.61548,-0.0465 -2.26232,-0.27636 -3.38667,-0.47268 -0.30268,-0.0528 -0.79798,-0.12684 -1.10066,-0.16443 -1.76752,-0.21948 -3.48997,-0.50996 -3.556,-0.59969 -0.0233,-0.0316 -0.30904,-0.0775 -0.635,-0.10201 -0.68745,-0.0516 -0.82847,-0.0713 -2.58234,-0.36051 -1.47136,-0.24263 -1.58145,-0.26016 -2.413,-0.384 -0.32596,-0.0485 -0.78316,-0.12269 -1.016,-0.16478 -0.23283,-0.0421 -0.91863,-0.15793 -1.524,-0.25744 -4.46884,-0.73457 -4.27957,-0.62834 -4.41618,-2.47869 -0.0374,-0.50729 -0.0919,-0.76264 -0.16904,-0.79223 -0.13785,-0.0529 -0.15066,-0.25313 -0.019,-0.29702 0.12799,-0.0427 0.10333,-10.54666 -0.0341,-14.54519 -0.007,-0.20955 -3e-5,-0.9144 0.0159,-1.56633 0.0324,-1.32374 -0.0575,-5.77465 -0.12525,-6.20183 -0.024,-0.15134 -0.0134,-0.27521 0.0237,-0.27527 0.037,-5e-5 0.0731,-1.47643 0.0801,-3.28083 0.007,-1.8044 0.0235,-3.43314 0.0367,-3.6194 0.0132,-0.18627 -0.001,-0.78634 -0.0326,-1.3335 -0.0361,-0.63488 -0.0264,-0.99484 0.0268,-0.99484 0.0458,0 0.0834,-0.1524 0.0834,-0.33866 0,-0.18627 -0.0403,-0.33867 -0.0895,-0.33867 -0.0952,0 -0.063,-1.77578 0.0437,-2.413 0.0429,-0.25587 0.034,-0.30762 -0.036,-0.21167 -0.0738,0.10104 -0.0834,0.0837 -0.0471,-0.0847 0.0987,-0.45813 0.0815,-9.11174 -0.0186,-9.37684 -0.022,-0.0582 -0.0848,-0.10583 -0.13959,-0.10583 -0.0716,0 -0.10386,-0.38098 -0.11471,-1.35467 -0.0127,-1.13885 0.005,-1.35466 0.10868,-1.35466 0.088,0 0.12376,-0.0982 0.12376,-0.34017 0,-0.27976 0.0545,-0.39311 0.3071,-0.63839 0.56284,-0.54659 0.56202,-0.54643 3.04045,-0.55512 2.05159,-0.007 2.24754,-0.0203 2.2036,-0.14727 -0.0422,-0.12204 -0.035,-0.12358 0.0578,-0.0124 0.0687,0.0823 0.2493,0.12509 0.51293,0.12156 0.2238,-0.003 0.42858,0.0297 0.45509,0.0725 0.0265,0.0429 0.0786,0.0287 0.11582,-0.0314 0.0523,-0.0845 0.0949,-0.0868 0.18771,-0.01 0.066,0.0548 0.14819,0.0715 0.18256,0.0372 0.0344,-0.0344 0.31662,-0.067 0.62721,-0.0726 0.63517,-0.0113 1.25007,-0.15573 1.43018,-0.33584 0.0662,-0.0662 0.17073,-0.1203 0.23237,-0.1203 0.0689,0 0.12449,-0.13042 0.14435,-0.33867 0.0224,-0.23509 -8.4e-4,-0.33867 -0.0758,-0.33867 -0.0696,0 -0.10807,-0.12043 -0.10807,-0.33866 0,-0.18627 -0.0381,-0.33867 -0.0847,-0.33867 -0.16184,0 -0.42333,-0.33994 -0.42333,-0.55033 0,-0.20795 -0.0118,-0.21167 -0.67028,-0.21167 -0.36865,0 -0.68298,-0.034 -0.6985,-0.0757 -0.0155,-0.0416 -0.63782,-0.0958 -1.38289,-0.12052 -1.25358,-0.0415 -1.28275,-0.0393 -0.39086,0.0301 1.39647,0.10853 1.33585,0.15188 -0.22297,0.15946 -1.20116,0.006 -1.37584,-0.0103 -1.37584,-0.12729 0,-0.16058 -7.2916,-0.0994 -8.509,0.0715 -0.66394,0.0931 -7.94789,0.15109 -7.8598,0.0625 0.0232,-0.0233 1.74394,-0.0622 3.82396,-0.0864 2.49577,-0.0291 0.48756,-0.0507 -5.90544,-0.0635 -8.82419,-0.0177 -10.82571,0.0177 -8.86919,0.15673 0.69181,0.0492 0.69181,0.0492 -0.18639,0.0635 -0.7534,0.0123 -0.8639,-0.003 -0.77761,-0.10688 0.0871,-0.10499 -0.82353,-0.12215 -6.8053,-0.12824 -4.47674,-0.005 -6.90589,0.0223 -6.90589,0.0763 0,0.0488 0.42961,0.0931 1.03716,0.10707 0.57044,0.0131 -3.22843,0.0285 -8.44194,0.0343 -6.94356,0.008 -9.4876,0.036 -9.51089,0.10584 -0.0457,0.13718 -1.34708,0.12878 -1.393,-0.009 -0.0268,-0.0804 -0.97479,-0.1086 -4.13456,-0.12291 -4.33214,-0.0196 -4.94104,-0.0687 -5.24498,-0.42227 -0.15552,-0.18094 -0.40229,-0.35086 -0.61163,-0.42115 -0.0858,-0.0288 -0.14816,-0.13475 -0.14816,-0.25154 0,-0.1588 -0.0451,-0.20179 -0.21167,-0.20179 -0.17358,0 -0.21232,-0.0419 -0.21532,-0.23283 -0.002,-0.12806 -0.024,-1.79494 -0.0487,-3.70417 -0.026,-2.00284 -0.0782,-3.48327 -0.12335,-3.49955 -0.10617,-0.0383 -0.10011,-0.69145 0.006,-0.69145 0.0517,0 0.0847,-0.39511 0.0847,-1.016 0,-0.62089 -0.0329,-1.016 -0.0847,-1.016 -0.0494,0 -0.0847,-0.28222 -0.0847,-0.67733 0,-0.39512 0.0353,-0.67734 0.0847,-0.67734 0.0517,0 0.0847,-0.39511 0.0847,-1.016 0,-0.62088 -0.0329,-1.016 -0.0847,-1.016 -0.0466,0 -0.0847,-0.1524 -0.0847,-0.33866 0,-0.18627 0.0381,-0.33867 0.0847,-0.33867 0.0466,0 0.0847,-0.1524 0.0847,-0.33867 0,-0.18626 -0.0381,-0.33866 -0.0847,-0.33866 -0.0494,0 -0.0847,-0.28222 -0.0847,-0.67734 0,-0.5115 0.0279,-0.67733 0.11407,-0.67733 0.089,0 0.11363,-0.20926 0.11206,-0.9525 -0.002,-1.09977 0.1976,-1.75683 0.53454,-1.75683 0.2243,0 0.68938,-0.33751 0.61993,-0.44988 -0.0286,-0.0464 -0.0116,-0.0592 0.0379,-0.0286 0.0495,0.0306 0.17923,-0.0501 0.28825,-0.17933 0.32737,-0.38807 0.79751,-0.57002 1.46821,-0.56825 0.32597,8.4e-4 0.6015,-0.0836 0.66261,-0.0847 l 0.10583,-0.002 4.33272,0.0608 c 19.74538,-0.89324 40.26276,0.089 60.26151,0.005 0.46567,-0.003 2.18017,0.0488 3.81,0.11431 1.91977,0.0772 3.06023,0.0909 3.2385,0.0391 0.16877,-0.0491 0.27517,-0.0496 0.27517,-0.001 0,0.14682 0.33217,0.0798 0.42027,-0.0848 0.0481,-0.09 0.16379,-0.1878 0.25697,-0.21737 0.0932,-0.0296 0.16942,-0.0916 0.16942,-0.13773 0,-0.0462 -0.0374,-0.0608 -0.0831,-0.0326 -0.052,0.0321 -0.0758,-0.16427 -0.0635,-0.52418 0.0156,-0.45695 -0.0121,-0.61046 -0.13443,-0.74489 -0.0961,-0.10559 -0.14144,-0.25699 -0.1205,-0.40217 0.0262,-0.18129 -8.5e-4,-0.23283 -0.12108,-0.23283 -0.0851,0 -0.15467,-0.0531 -0.15467,-0.11794 0,-0.23846 -0.36749,-0.26305 -3.92981,-0.26306 -2.83146,0 -3.6413,-0.0234 -3.6689,-0.10584 -0.0195,-0.0582 -0.14067,-0.10583 -0.26934,-0.10583 -0.34826,0 -0.76056,-0.23741 -0.81939,-0.47184 -0.0284,-0.11302 -0.10717,-0.20549 -0.17511,-0.20549 -0.0915,0 -0.10616,-0.0494 -0.0565,-0.1905 0.0369,-0.10478 0.0502,-1.31445 0.0296,-2.68817 -0.0206,-1.37372 -0.0315,-4.30742 -0.0242,-6.51933 0.0178,-5.41711 0.019,-12.12559 0.004,-25.30049 -0.0118,-10.59959 -0.0184,-11.03843 -0.16768,-11.14296 -0.0992,-0.0695 -0.13511,-0.16157 -0.0993,-0.25479 0.0434,-0.11313 0.0714,-0.12111 0.12429,-0.0355 0.11813,0.19115 0.16276,0.0317 0.0759,-0.27118 -0.0473,-0.16511 -0.051,-0.30148 -0.008,-0.31569 0.0428,-0.0143 0.0444,-0.16003 0.004,-0.33871 -0.0391,-0.17254 -0.0443,-0.32324 -0.0114,-0.33489 0.0329,-0.0117 0.0566,-1.669 0.0527,-3.683 -0.007,-3.73722 0.0144,-4.02662 0.32143,-4.32331 0.16126,-0.1558 1.40626,-0.74459 1.66407,-0.78697 0.12257,-0.0202 0.29905,-0.0728 0.39218,-0.11692 0.1874,-0.0888 1.79123,-0.71524 2.69825,-1.05384 0.31986,-0.11941 0.67229,-0.21711 0.78317,-0.21711 0.11087,0 0.20158,-0.0306 0.20158,-0.0679 0,-0.0374 0.37148,-0.19214 0.8255,-0.34393 0.45403,-0.1518 0.89166,-0.31172 0.97252,-0.35539 0.0809,-0.0437 0.2052,-0.0794 0.27631,-0.0794 0.0711,0 0.19546,-0.036 0.27632,-0.0799 0.0809,-0.044 0.41372,-0.15957 0.73968,-0.25691 0.32597,-0.0973 0.66887,-0.20996 0.762,-0.25026 0.21377,-0.0925 2.25723,-0.67377 2.70934,-0.77065 0.18626,-0.0399 0.57848,-0.15227 0.87159,-0.24967 0.29312,-0.0974 0.69317,-0.21165 0.889,-0.25389 0.38137,-0.0822 2.42375,-0.59762 3.19241,-0.80556 0.98627,-0.26682 2.25306,-0.55029 2.45956,-0.55037 0.11875,-5e-5 0.25454,-0.0387 0.30176,-0.086 0.0472,-0.0472 0.38822,-0.14278 0.75776,-0.21236 0.36956,-0.0696 1.03387,-0.2032 1.47625,-0.29693 1.65621,-0.3509 3.86144,-0.75705 4.11716,-0.75826 0.14565,-8.5e-4 0.3933,-0.0535 0.55034,-0.11731 0.15702,-0.0638 0.64745,-0.17512 1.08983,-0.24733 0.44239,-0.0722 1.08966,-0.17747 1.43841,-0.23393 0.34873,-0.0565 0.71765,-0.1574 0.81981,-0.22435 0.13088,-0.0858 0.23121,-0.0974 0.33962,-0.0394 0.10332,0.0553 0.39025,0.043 0.87351,-0.0375 0.93444,-0.15561 1.8373,-0.25922 3.55599,-0.40804 0.76835,-0.0665 1.4732,-0.13994 1.56633,-0.16312 0.0931,-0.0232 0.68368,-0.0853 1.31233,-0.13804 0.62865,-0.0528 1.4478,-0.13361 1.82034,-0.17971 0.73471,-0.0909 1.17674,-0.11535 3.683,-0.2036 0.90805,-0.032 1.86589,-0.0855 2.12853,-0.11892 1.91713,-0.24405 3.38002,-0.0772 3.74231,0.42679 0.24843,0.34561 0.38985,0.36266 0.40117,0.0483 0.004,-0.10203 0.0251,-0.14015 0.0477,-0.0847 0.0226,0.0554 0.006,0.22772 -0.0369,0.38286 -0.0436,0.15804 -0.0465,0.36691 -0.007,0.47501 0.0393,0.10611 0.0433,0.17558 0.009,0.15439 -0.0836,-0.0517 -0.072,4.91359 0.0122,5.23695 0.0364,0.1397 0.0345,0.21071 -0.004,0.1578 -0.0398,-0.0544 -0.0778,0.22055 -0.0875,0.63247 -0.0116,0.49148 0.016,0.75018 0.0847,0.79471 0.078,0.0506 0.0758,0.0828 -0.01,0.13796 -0.1105,0.0714 -0.10922,0.90098 0.0123,7.92906 0.0249,1.43934 0.0249,1.43934 -0.0259,0.0423 -0.049,-1.3495 -0.051,-1.32648 -0.056,0.67733 -0.003,1.14088 0.0223,1.92193 0.056,1.73567 0.0337,-0.18627 0.0375,-0.0529 0.008,0.29633 -0.0541,0.65024 -0.0316,4.69932 0.0304,5.461 0.0287,0.35254 0.0215,0.38086 -0.0427,0.16933 -0.0555,-0.18276 -0.0631,-0.0996 -0.0271,0.29634 0.0275,0.30268 0.0434,0.87418 0.0353,1.27 -0.05,2.44448 -0.0542,3.65831 -0.0122,3.48825 0.0264,-0.10711 0.0481,0.64537 0.0481,1.67219 0,1.02681 -0.0246,1.86692 -0.0546,1.86692 -0.062,-3e-5 -0.0304,3.07664 0.0327,3.18757 0.0226,0.0396 0.0289,0.16732 0.0141,0.28373 -0.0318,0.25029 -0.0318,6.2755 0,25.73867 0.0138,8.34419 -0.008,14.39214 -0.0521,14.4493 -0.0458,0.0594 -0.0406,0.11998 0.0131,0.15316 0.0488,0.0302 0.0861,0.1574 0.0828,0.2827 -0.005,0.20673 -0.0133,0.21215 -0.085,0.0585 -0.0518,-0.11108 -0.0606,0.0637 -0.0254,0.508 0.0295,0.37253 0.0424,1.28693 0.0286,2.032 -0.0137,0.74506 -0.0237,1.52611 -0.0221,1.73566 0.002,0.20955 0.0142,1.88595 0.028,3.72534 0.0138,1.83938 -0.004,3.65866 -0.04,4.04283 -0.0488,0.52287 -0.0396,0.6985 0.0364,0.6985 0.0751,0 0.0939,0.2737 0.0723,1.0496 -0.0161,0.57728 -0.0578,1.03223 -0.0928,1.011 -0.0349,-0.0212 -0.0578,2.86878 -0.0508,6.42224 0.007,3.55345 0.0403,6.30843 0.074,6.12216 0.0337,-0.18627 0.0384,-0.0529 0.0103,0.29633 -0.028,0.34925 -0.0396,0.8255 -0.0256,1.05834 0.0558,0.93229 0.0517,4.59342 -0.005,4.91066 -0.0409,0.22645 -0.0343,0.29659 0.0199,0.21167 0.053,-0.0832 0.0754,0.355 0.0649,1.27 -0.0161,1.397 -0.0161,1.397 -0.066,0.254 -0.0499,-1.143 -0.0499,-1.143 -0.0673,0.3175 -0.0111,0.92883 0.0134,1.4605 0.0673,1.4605 0.0531,0 0.0809,0.46605 0.0746,1.24883 -0.006,0.75966 -0.0353,1.14935 -0.0746,0.99484 -0.0413,-0.16221 -0.0683,0.11826 -0.0747,0.77611 -0.007,0.75601 0.0181,1.03959 0.0958,1.06573 0.0766,0.0258 0.081,0.0687 0.0161,0.15522 -0.11662,0.15543 -0.15022,1.85527 -0.0367,1.85527 0.0462,0 0.0841,0.0953 0.0841,0.21167 0,0.11641 -0.0381,0.21166 -0.0847,0.21166 -0.0542,0 -0.0842,0.73997 -0.0834,2.05317 8.4e-4,1.35689 0.0291,2.0101 0.0834,1.92617 0.0451,-0.0698 0.0827,-0.0857 0.0834,-0.0353 8.4e-4,0.0505 -0.0273,0.12029 -0.0622,0.15521 -0.0948,0.0948 -0.0946,2.02253 0,2.14364 0.0477,0.0609 0.0597,0.37937 0.0287,0.762 -0.1529,1.89017 -0.15503,1.98959 -0.0442,2.05811 0.0874,0.054 0.0893,0.13515 0.009,0.40165 -0.055,0.18369 -0.0943,0.48196 -0.0873,0.66282 0.0127,0.32885 0.0127,0.32885 0.072,-0.0521 0.0447,-0.28728 0.0624,-0.15587 0.072,0.53416 0.008,0.59163 -0.0172,0.89666 -0.072,0.86284 -0.0517,-0.032 -0.0847,0.0979 -0.0847,0.33367 0,0.21229 0.0381,0.38599 0.0847,0.38599 0.0473,0 0.082,0.21476 0.0787,0.48684 -0.004,0.36242 -0.0256,0.44356 -0.0827,0.3175 -0.0567,-0.12515 -0.0662,-0.0865 -0.0364,0.14816 0.0222,0.17463 0.0585,0.46038 0.0807,0.635 0.0298,0.23465 0.0203,0.27332 -0.0364,0.14817 -0.0526,-0.11612 -0.0746,0.0568 -0.0699,0.55033 0.006,0.59508 0.017,0.65371 0.0658,0.33867 0.0428,-0.276 0.0568,-0.15607 0.0508,0.43522 -0.005,0.44893 -0.0305,0.80303 -0.0577,0.78689 -0.0272,-0.0161 -0.0494,0.0816 -0.0494,0.21722 0,0.13561 0.0222,0.23298 0.0494,0.21639 0.0272,-0.0166 0.0504,0.1375 0.0516,0.3424 10e-4,0.2049 -0.0327,0.37255 -0.0754,0.37255 -0.0464,0 -0.0523,0.4858 -0.0147,1.2065 0.0346,0.66357 0.0583,3.38831 0.0525,6.05498 -0.0142,6.61693 0.11289,6.35325 -2.88572,5.98695 z"
       id="path25459"
       sodipodi:nodetypes="cssssssssssssssssssssssssscssssscsssssssssssscssssscscssssssssssscsssssssscsscssssssssssssssssssssssscsssssscccsssssssssssssssssssscsssscsscsssssssssssssssssssscssssssssssssscsscsscsscsscscssssssssscsscssscscssssssccssssssscsssssssssscscsscssscsssscscssscssccc" /><g
       id="g23450"
       transform="matrix(0.26458333,0,0,0.26458333,107.60253,429.64978)"><!-- Repeating pattern: tooth, space, tooth, tooth --></g><g
       id="g23490"
       transform="matrix(0.26458333,0,0,0.26458333,107.60253,429.64978)" /><g
       fill="#1a1a1a"
       id="g23522"
       transform="matrix(0.26458333,0,0,0.26458333,107.60253,429.64978)" /><g
       aria-label="Ribbon Connector"
       id="text23530"
       style="font-size:28px;font-family:monospace;fill:#444444"
       transform="matrix(0.26458333,0,0,0.26458333,107.60253,429.64978)" /></g><g
     inkscape:groupmode="layer"
     id="layer3"
     inkscape:label="layer2" /><g
     inkscape:groupmode="layer"
     id="layer4"
     inkscape:label="layer3" /><g
     inkscape:groupmode="layer"
     id="layer5"
     inkscape:label="layer4" /><g
     inkscape:groupmode="layer"
     id="layer6"
     inkscape:label="layer5" /><g
     inkscape:groupmode="layer"
     id="layer7"
     inkscape:label="layer6" /><g
     inkscape:groupmode="layer"
     id="layer8"
     inkscape:label="layer7" /><g
     inkscape:groupmode="layer"
     id="layer9"
     inkscape:label="layer8" /><g
     inkscape:groupmode="layer"
     id="layer10"
     inkscape:label="layer9" /><g
     inkscape:groupmode="layer"
     id="layer11"
     inkscape:label="layer10" /></svg>
