<?xml version="1.0" encoding="UTF-8" standalone="no"?>
<svg
   width="108.84821mm"
   height="147.54593mm"
   viewBox="0 0 108.84821 147.54593"
   version="1.1"
   id="svg8"
   inkscape:version="1.2.2 (b0a8486541, 2022-12-01)"
   sodipodi:docname="strumplate_traces.svg"
   xml:space="preserve"
   xmlns:inkscape="http://www.inkscape.org/namespaces/inkscape"
   xmlns:sodipodi="http://sodipodi.sourceforge.net/DTD/sodipodi-0.dtd"
   xmlns="http://www.w3.org/2000/svg"
   xmlns:svg="http://www.w3.org/2000/svg"
   xmlns:rdf="http://www.w3.org/1999/02/22-rdf-syntax-ns#"
   xmlns:cc="http://creativecommons.org/ns#"
   xmlns:dc="http://purl.org/dc/elements/1.1/"><defs
     id="defs2"><pattern
       id="grid"
       width="40"
       height="40"
       patternUnits="userSpaceOnUse"><path
         d="M 40 0 L 0 0 0 40"
         fill="none"
         stroke="#ddd"
         stroke-width="1"
         id="path23066" /></pattern><pattern
       id="grid-0"
       width="40"
       height="40"
       patternUnits="userSpaceOnUse"><path
         d="M 40 0 L 0 0 0 40"
         fill="none"
         stroke="#ddd"
         stroke-width="1"
         id="path23381" /></pattern></defs><sodipodi:namedview
     id="base"
     pagecolor="#ffffff"
     bordercolor="#666666"
     borderopacity="1.0"
     inkscape:pageopacity="0.0"
     inkscape:pageshadow="2"
     inkscape:zoom="6.4265068"
     inkscape:cx="262.81774"
     inkscape:cy="444.33159"
     inkscape:document-units="mm"
     inkscape:current-layer="layer2"
     showgrid="true"
     inkscape:window-width="3840"
     inkscape:window-height="2106"
     inkscape:window-x="0"
     inkscape:window-y="0"
     inkscape:window-maximized="1"
     inkscape:pagecheckerboard="0"
     inkscape:document-rotation="0"
     units="mm"
     inkscape:showpageshadow="2"
     inkscape:deskcolor="#d1d1d1"><inkscape:grid
       type="xygrid"
       id="grid9"
       units="mm"
       originx="-284.58638"
       originy="-356.55988" /></sodipodi:namedview><metadata
     id="metadata5"><rdf:RDF><cc:Work
         rdf:about=""><dc:format>image/svg+xml</dc:format><dc:type
           rdf:resource="http://purl.org/dc/dcmitype/StillImage" /></cc:Work></rdf:RDF></metadata><g
     inkscape:label="bed outline"
     inkscape:groupmode="layer"
     id="layer1"
     transform="translate(-284.5864,396.44011)"
     style="display:none"><text
       xml:space="preserve"
       style="font-style:normal;font-weight:normal;font-size:10.5833px;line-height:1.25;font-family:sans-serif;letter-spacing:0px;word-spacing:0px;fill:#000000;fill-opacity:1;stroke:none;stroke-width:0.264583"
       x="51.404758"
       y="135.22618"
       id="text817" /></g><g
     inkscape:groupmode="layer"
     id="layer2"
     inkscape:label="layer1"
     transform="translate(-284.5864,-356.55989)"><g
       id="g23450"
       transform="matrix(0.26458333,0,0,0.26458333,107.60253,429.64978)"><!-- Repeating pattern: tooth, space, tooth, tooth --></g><g
       id="g23490"
       transform="matrix(0.26458333,0,0,0.26458333,107.60253,429.64978)" /><g
       fill="#1a1a1a"
       id="g23522"
       transform="matrix(0.26458333,0,0,0.26458333,107.60253,429.64978)" /><g
       aria-label="Ribbon Connector"
       id="text23530"
       style="font-size:28px;font-family:monospace;fill:#444444"
       transform="matrix(0.26458333,0,0,0.26458333,107.60253,429.64978)" /><path
       style="fill:none;stroke:#000000;stroke-width:1.045;stroke-dasharray:none;stroke-opacity:1"
       d="m 391.12139,359.40685 h -13.59625 v 4.4206 h 13.58376"
       id="path24716"
       sodipodi:nodetypes="cccc" /><path
       style="fill:none;stroke:#000000;stroke-width:1.045;stroke-dasharray:none;stroke-opacity:1"
       d="m 391.22359,370.72106 h -13.69845 v 4.4206 h 13.68596"
       id="path24718"
       sodipodi:nodetypes="cccc" /><path
       style="fill:none;stroke:#000000;stroke-width:1.045;stroke-dasharray:none;stroke-opacity:1"
       d="m 391.22359,382.02599 h -13.69845 v 4.4206 h 13.68596"
       id="path24720"
       sodipodi:nodetypes="cccc" /><path
       style="fill:none;stroke:#000000;stroke-width:1.045;stroke-dasharray:none;stroke-opacity:1"
       d="m 391.22359,393.29891 h -13.69845 v 4.4206 h 13.68596"
       id="path24722"
       sodipodi:nodetypes="cccc" /><path
       style="fill:none;stroke:#000000;stroke-width:1.045;stroke-dasharray:none;stroke-opacity:1"
       d="m 391.22359,404.61995 h -13.69845 v 4.4206 h 13.68596"
       id="path24724"
       sodipodi:nodetypes="cccc" /><path
       style="fill:none;stroke:#000000;stroke-width:1.045;stroke-dasharray:none;stroke-opacity:1"
       d="m 391.22359,415.82873 h -13.69845 v 4.4206 h 13.68596"
       id="path24726"
       sodipodi:nodetypes="cccc" /><path
       style="fill:none;stroke:#000000;stroke-width:1.045;stroke-dasharray:none;stroke-opacity:1"
       d="m 391.22359,427.13372 h -13.69845 v 4.4206 h 13.68596"
       id="path24728"
       sodipodi:nodetypes="cccc" /><path
       style="fill:none;stroke:#000000;stroke-width:1.045;stroke-dasharray:none;stroke-opacity:1"
       d="m 391.22359,438.42269 h -13.69845 v 4.4206 h 13.68596"
       id="path24730"
       sodipodi:nodetypes="cccc" /><path
       style="fill:none;stroke:#000000;stroke-width:1.045;stroke-dasharray:none;stroke-opacity:1"
       d="m 391.22359,449.63147 h -13.69845 v 4.4206 h 13.68596"
       id="path24732"
       sodipodi:nodetypes="cccc" /><path
       style="fill:none;stroke:#000000;stroke-width:1.045;stroke-dasharray:none;stroke-opacity:1"
       d="m 391.22359,460.92044 h -13.69845 v 4.4206 h 13.68596"
       id="path24734"
       sodipodi:nodetypes="cccc" /><path
       style="fill:none;stroke:#000000;stroke-width:1.045;stroke-dasharray:none;stroke-opacity:1"
       d="m 391.22359,472.19336 h -13.69845 v 4.4206 h 13.68596"
       id="path24736"
       sodipodi:nodetypes="cccc" /><path
       style="fill:none;stroke:#000000;stroke-width:1.045;stroke-dasharray:none;stroke-opacity:1"
       d="m 391.22359,483.43421 h -13.69845 v 4.4206 h 13.68596"
       id="path24738"
       sodipodi:nodetypes="cccc" /><path
       style="fill:none;stroke:#000000;stroke-width:1.045;stroke-dasharray:none;stroke-opacity:1"
       d="m 391.22359,494.70713 h -13.69845 v 4.4206 h 13.68596"
       id="path24740"
       sodipodi:nodetypes="cccc" /><path
       style="fill:none;fill-opacity:1;stroke:#000000;stroke-width:0.717;stroke-dasharray:none;stroke-opacity:1"
       d="m 377.52514,361.82281 h -15.52755 v 62.60367 h -77.41094"
       id="path25168"
       sodipodi:nodetypes="cccc" /><path
       style="fill:none;fill-opacity:1;stroke:#000000;stroke-width:0.717;stroke-dasharray:none;stroke-opacity:1"
       d="m 377.52514,373.16584 h -14.0937 l -0.07,52.57653 -78.77479,-0.0543"
       id="path25171"
       sodipodi:nodetypes="cccc" /><path
       style="fill:none;fill-opacity:1;stroke:#000000;stroke-width:0.717;stroke-dasharray:none;stroke-opacity:1"
       d="m 377.52514,384.27841 h -12.58302 l -0.07,42.70582 -80.28547,-0.0457"
       id="path25215"
       sodipodi:nodetypes="cccc" /><path
       style="fill:none;fill-opacity:1;stroke:#000000;stroke-width:0.717;stroke-dasharray:none;stroke-opacity:1"
       d="m 377.52514,395.58303 h -11.14057 l -0.07,32.72848 -81.72792,-0.0457"
       id="path25217"
       sodipodi:nodetypes="cccc" /><path
       style="fill:none;fill-opacity:1;stroke:#000000;stroke-width:0.717;stroke-dasharray:none;stroke-opacity:1"
       d="m 377.52514,406.81083 h -9.62989 l -0.07,22.75113 -83.2386,-0.0457"
       id="path25219"
       sodipodi:nodetypes="cccc" /><path
       style="fill:none;fill-opacity:1;stroke:#000000;stroke-width:0.717;stroke-dasharray:none;stroke-opacity:1"
       d="m 377.52514,418.07704 h -8.0808 l -0.07,12.73538 -84.78769,-0.0457"
       id="path25221"
       sodipodi:nodetypes="cccc" /><path
       style="fill:none;fill-opacity:1;stroke:#000000;stroke-width:0.717;stroke-dasharray:none;stroke-opacity:1"
       d="m 377.52514,429.28468 h -6.62239 v 2.71822 h -86.3161"
       id="path25223"
       sodipodi:nodetypes="cccc" /><path
       style="fill:none;fill-opacity:1;stroke:#000000;stroke-width:0.717;stroke-dasharray:none;stroke-opacity:1"
       d="m 379.4151,434.93282 h -5.66157 v -1.60068 h -89.16688"
       id="path25225"
       sodipodi:nodetypes="cccc" /><path
       id="path25227"
       style="fill:none;fill-opacity:1;stroke:#000000;stroke-width:1.117;stroke-linecap:square;stroke-dasharray:none;stroke-opacity:1"
       d="m 363.64273,494.1299 h -7.93208 m 7.93208,-7.6008 h -7.93208 m 7.93208,-7.44045 h -7.93208 m 7.93208,11.3049 h -5.73929 m 5.73929,-15.00909 h -5.73929 m 34.94365,21.54247 h -13.3345 m 13.3345,-4.57008 h -13.3345 m 13.3345,-2.21286 h -13.3345 m 13.3345,-4.42584 h -13.3345 m 13.3345,-4.57008 h -13.3345 m 13.3345,-2.21286 h -13.3345 m 13.3345,-4.48998 h -13.3345 m 13.3345,-4.57008 h -13.3345 m 13.3345,-2.21286 h -13.3345 m 13.3345,-4.57017 h -13.3345 m 13.3345,-4.57008 h -13.3345 m 13.3345,-2.21286 h -13.3345 m 13.3345,-4.42584 h -13.3345 m 13.3345,-4.57008 h -13.3345 m 13.3345,-2.21286 h -13.3345 m 13.3345,-4.42581 h -13.3345 m 13.3345,-4.57008 h -13.3345 m 13.3345,-6.79899 h -13.3345 m 13.3345,-4.57008 h -13.3345 m 13.3345,-2.21286 h -13.3345 m 13.3345,-4.39377 h -13.3345 m 13.3345,-4.57008 h -13.3345 m 13.3345,-2.21286 h -13.3345 m 13.3345,-4.55412 h -13.3345 m 13.3345,-4.57008 h -13.3345 m 13.3345,-2.21286 h -13.3345 m 13.3345,-4.45791 h -13.3345 m 13.3345,-4.57008 h -13.3345 m 13.3345,-2.21286 h -13.3345 m 13.3345,-4.45785 h -13.3345 m 13.3345,-4.57008 h -13.3345 m 13.3345,-2.21286 h -13.3345 m 13.3345,-15.85899 h -13.3345 m 13.3345,11.32098 h -13.3345 m 13.3345,-4.57008 h -13.3345 m 13.3345,-2.21286 h -13.3345 m 0,-9.08783 h 13.3345 l 0.0289,146.34657 -29.23326,-4.03302 V 471.2046 h -7.93208 m 37.13644,-37.31295 h -13.3345 v 2.21286"
       sodipodi:nodetypes="ccccccccccccccccccccccccccccccccccccccccccccccccccccccccccccccccccccccccccccccccccccccccccc" /><path
       style="fill:none;fill-opacity:1;stroke:#000000;stroke-width:0.717;stroke-dasharray:none;stroke-opacity:1"
       d="m 377.52514,440.63846 h -5.25248 v -6.07465 h -87.68601"
       id="path25231"
       sodipodi:nodetypes="cccc" /><path
       style="fill:none;fill-opacity:1;stroke:#000000;stroke-width:0.717;stroke-dasharray:none;stroke-opacity:1"
       d="m 377.52514,451.86626 h -6.73335 v -16.05043 h -86.20514"
       id="path25284"
       sodipodi:nodetypes="cccc" /><path
       style="fill:none;fill-opacity:1;stroke:#000000;stroke-width:0.717;stroke-dasharray:none;stroke-opacity:1"
       d="m 377.52514,463.1092 h -3.12671 v -2.67134 h -5.09535 v -23.39645 h -84.71643"
       id="path25288"
       sodipodi:nodetypes="cccccc" /><path
       style="fill:none;fill-opacity:1;stroke:#000000;stroke-width:0.717;stroke-dasharray:none;stroke-opacity:1"
       d="m 377.52514,474.41382 h -5.16655 V 462.593 h -4.49796 v -24.32179 h -83.27398"
       id="path25290"
       sodipodi:nodetypes="cccccc" /><path
       style="fill:none;fill-opacity:1;stroke:#000000;stroke-width:0.717;stroke-dasharray:none;stroke-opacity:1"
       d="m 377.52514,485.60321 h -7.16798 v -20.81665 h -4.08403 v -25.26489 h -81.68648"
       id="path25292"
       sodipodi:nodetypes="cccccc" /><path
       style="fill:none;fill-opacity:1;stroke:#000000;stroke-width:0.717;stroke-dasharray:none;stroke-opacity:1"
       d="m 377.52514,496.86085 h -9.1396 v -30.00454 h -3.69991 v -26.13117 h -80.09898"
       id="path25294"
       sodipodi:nodetypes="cccccc" /><path
       style="fill:none;stroke:#000000;stroke-width:1.00399;stroke-dasharray:none;stroke-opacity:1"
       d="m 361.96947,473.50328 h -5.81154 v 3.80301 h 5.80009"
       id="path25296"
       sodipodi:nodetypes="cccc" /><path
       style="fill:none;stroke:#000000;stroke-width:1.00461;stroke-dasharray:none;stroke-opacity:1"
       d="m 361.91437,488.46984 h -5.80704 v 3.81069 h 5.79561"
       id="path25300"
       sodipodi:nodetypes="cccc" /><path
       style="fill:none;fill-opacity:1;stroke:#000000;stroke-width:0.717;stroke-dasharray:none;stroke-opacity:1"
       d="m 356.21317,490.44767 h -3.96092 v -29.66382 h 9.58247 v -17.497 h -77.24807"
       id="path25302"
       sodipodi:nodetypes="cccccc" /><path
       style="fill:none;fill-opacity:1;stroke:#000000;stroke-width:0.717;stroke-dasharray:none;stroke-opacity:1"
       d="m 356.21489,475.37351 h -2.55241 v -12.7894 h 9.56654 v -20.59358 h -78.64237"
       id="path25304"
       sodipodi:nodetypes="cccccc" /></g><g
     inkscape:groupmode="layer"
     id="layer3"
     inkscape:label="layer2"
     transform="translate(-284.5864,-356.55989)" /><g
     inkscape:groupmode="layer"
     id="layer4"
     inkscape:label="layer3"
     transform="translate(-284.5864,-356.55989)" /><g
     inkscape:groupmode="layer"
     id="layer5"
     inkscape:label="layer4"
     transform="translate(-284.5864,-356.55989)" /><g
     inkscape:groupmode="layer"
     id="layer6"
     inkscape:label="layer5"
     transform="translate(-284.5864,-356.55989)" /><g
     inkscape:groupmode="layer"
     id="layer7"
     inkscape:label="layer6"
     transform="translate(-284.5864,-356.55989)" /><g
     inkscape:groupmode="layer"
     id="layer8"
     inkscape:label="layer7"
     transform="translate(-284.5864,-356.55989)" /><g
     inkscape:groupmode="layer"
     id="layer9"
     inkscape:label="layer8"
     transform="translate(-284.5864,-356.55989)" /><g
     inkscape:groupmode="layer"
     id="layer10"
     inkscape:label="layer9"
     transform="translate(-284.5864,-356.55989)" /><g
     inkscape:groupmode="layer"
     id="layer11"
     inkscape:label="layer10"
     transform="translate(-284.5864,-356.55989)" /></svg>
