%TF.GenerationSoftware,KiCad,Pcbnew,9.0.8+1*%
%TF.CreationDate,2026-06-10T17:38:38-04:00*%
%TF.ProjectId,om-84_strumplate,6f6d2d38-345f-4737-9472-756d706c6174,rev?*%
%TF.SameCoordinates,Original*%
%TF.FileFunction,Legend,Top*%
%TF.FilePolarity,Positive*%
%FSLAX46Y46*%
G04 Gerber Fmt 4.6, Leading zero omitted, Abs format (unit mm)*
G04 Created by KiCad (PCBNEW 9.0.8+1) date 2026-06-10 17:38:38*
%MOMM*%
%LPD*%
G01*
G04 APERTURE LIST*
%ADD10C,0.426490*%
%ADD11C,1.000800*%
%ADD12C,1.116999*%
%ADD13C,1.044999*%
G04 APERTURE END LIST*
%LPC*%
D10*
X81870000Y-137407492D02*
X80253423Y-137407492D01*
X80253423Y-136917776D01*
X81870000Y-136917776D01*
X81870000Y-137407492D01*
G36*
X81870000Y-137407492D02*
G01*
X80253423Y-137407492D01*
X80253423Y-136917776D01*
X81870000Y-136917776D01*
X81870000Y-137407492D01*
G37*
D11*
X151560338Y-189973746D02*
X157381749Y-189973746D01*
X151560338Y-186208670D02*
X151560338Y-189973746D01*
X157393224Y-186208670D02*
X151560338Y-186208670D01*
D10*
X81870000Y-156242087D02*
X80253423Y-156242087D01*
X80253423Y-155752371D01*
X81870000Y-155752371D01*
X81870000Y-156242087D01*
G36*
X81870000Y-156242087D02*
G01*
X80253423Y-156242087D01*
X80253423Y-155752371D01*
X81870000Y-155752371D01*
X81870000Y-156242087D01*
G37*
X81870000Y-154923727D02*
X80253423Y-154923727D01*
X80253423Y-154434012D01*
X81870000Y-154434012D01*
X81870000Y-154923727D01*
G36*
X81870000Y-154923727D02*
G01*
X80253423Y-154923727D01*
X80253423Y-154434012D01*
X81870000Y-154434012D01*
X81870000Y-154923727D01*
G37*
X81870000Y-153676962D02*
X80253423Y-153676962D01*
X80253423Y-153187246D01*
X81870000Y-153187246D01*
X81870000Y-153676962D01*
G36*
X81870000Y-153676962D02*
G01*
X80253423Y-153676962D01*
X80253423Y-153187246D01*
X81870000Y-153187246D01*
X81870000Y-153676962D01*
G37*
X81870000Y-152484030D02*
X80253423Y-152484030D01*
X80253423Y-151994314D01*
X81870000Y-151994314D01*
X81870000Y-152484030D01*
G36*
X81870000Y-152484030D02*
G01*
X80253423Y-152484030D01*
X80253423Y-151994314D01*
X81870000Y-151994314D01*
X81870000Y-152484030D01*
G37*
X81870000Y-151210348D02*
X80253423Y-151210348D01*
X80253423Y-150720633D01*
X81870000Y-150720633D01*
X81870000Y-151210348D01*
G36*
X81870000Y-151210348D02*
G01*
X80253423Y-151210348D01*
X80253423Y-150720633D01*
X81870000Y-150720633D01*
X81870000Y-151210348D01*
G37*
X81870000Y-149999655D02*
X80253423Y-149999655D01*
X80253423Y-149509939D01*
X81870000Y-149509939D01*
X81870000Y-149999655D01*
G36*
X81870000Y-149999655D02*
G01*
X80253423Y-149999655D01*
X80253423Y-149509939D01*
X81870000Y-149509939D01*
X81870000Y-149999655D01*
G37*
X81870000Y-148752890D02*
X80253423Y-148752890D01*
X80253423Y-148263174D01*
X81870000Y-148263174D01*
X81870000Y-148752890D01*
G36*
X81870000Y-148752890D02*
G01*
X80253423Y-148752890D01*
X80253423Y-148263174D01*
X81870000Y-148263174D01*
X81870000Y-148752890D01*
G37*
X81870000Y-147533590D02*
X80253423Y-147533590D01*
X80253423Y-147043875D01*
X81870000Y-147043875D01*
X81870000Y-147533590D01*
G36*
X81870000Y-147533590D02*
G01*
X80253423Y-147533590D01*
X80253423Y-147043875D01*
X81870000Y-147043875D01*
X81870000Y-147533590D01*
G37*
X81870000Y-146286825D02*
X80253423Y-146286825D01*
X80253423Y-145797110D01*
X81870000Y-145797110D01*
X81870000Y-146286825D01*
G36*
X81870000Y-146286825D02*
G01*
X80253423Y-146286825D01*
X80253423Y-145797110D01*
X81870000Y-145797110D01*
X81870000Y-146286825D01*
G37*
X81870000Y-144968466D02*
X80253423Y-144968466D01*
X80253423Y-144478750D01*
X81870000Y-144478750D01*
X81870000Y-144968466D01*
G36*
X81870000Y-144968466D02*
G01*
X80253423Y-144968466D01*
X80253423Y-144478750D01*
X81870000Y-144478750D01*
X81870000Y-144968466D01*
G37*
X81870000Y-143721701D02*
X80253423Y-143721701D01*
X80253423Y-143231985D01*
X81870000Y-143231985D01*
X81870000Y-143721701D01*
G36*
X81870000Y-143721701D02*
G01*
X80253423Y-143721701D01*
X80253423Y-143231985D01*
X81870000Y-143231985D01*
X81870000Y-143721701D01*
G37*
X81870000Y-142448019D02*
X80253423Y-142448019D01*
X80253423Y-141958304D01*
X81870000Y-141958304D01*
X81870000Y-142448019D01*
G36*
X81870000Y-142448019D02*
G01*
X80253423Y-142448019D01*
X80253423Y-141958304D01*
X81870000Y-141958304D01*
X81870000Y-142448019D01*
G37*
X81870000Y-141201254D02*
X80253423Y-141201254D01*
X80253423Y-140711538D01*
X81870000Y-140711538D01*
X81870000Y-141201254D01*
G36*
X81870000Y-141201254D02*
G01*
X80253423Y-141201254D01*
X80253423Y-140711538D01*
X81870000Y-140711538D01*
X81870000Y-141201254D01*
G37*
X81870000Y-139882895D02*
X80253423Y-139882895D01*
X80253423Y-139393179D01*
X81870000Y-139393179D01*
X81870000Y-139882895D01*
G36*
X81870000Y-139882895D02*
G01*
X80253423Y-139882895D01*
X80253423Y-139393179D01*
X81870000Y-139393179D01*
X81870000Y-139882895D01*
G37*
X81870000Y-138636130D02*
X80253423Y-138636130D01*
X80253423Y-138146414D01*
X81870000Y-138146414D01*
X81870000Y-138636130D01*
G36*
X81870000Y-138636130D02*
G01*
X80253423Y-138636130D01*
X80253423Y-138146414D01*
X81870000Y-138146414D01*
X81870000Y-138636130D01*
G37*
D11*
X151560338Y-204944143D02*
X157381749Y-204944143D01*
X151560338Y-201179068D02*
X151560338Y-204944143D01*
X157393224Y-201179068D02*
X151560338Y-201179068D01*
D12*
X159075749Y-206816336D02*
X151143682Y-206816336D01*
X159075749Y-199215536D02*
X151143682Y-199215536D01*
X159075749Y-191775076D02*
X151143682Y-191775076D01*
X159075749Y-203079977D02*
X153336461Y-203079977D01*
X159075749Y-188070883D02*
X153336461Y-188070883D01*
X188280126Y-209613363D02*
X174945622Y-209613363D01*
X188280126Y-205043295D02*
X174945622Y-205043295D01*
X188280126Y-202830435D02*
X174945622Y-202830435D01*
X188280126Y-198404593D02*
X174945622Y-198404593D01*
X188280126Y-193834524D02*
X174945622Y-193834524D01*
X188280126Y-191621664D02*
X174945622Y-191621664D01*
X188280126Y-187131674D02*
X174945622Y-187131674D01*
X188280126Y-182561606D02*
X174945622Y-182561606D01*
X188280126Y-180348746D02*
X174945622Y-180348746D01*
X188280126Y-175778586D02*
X174945622Y-175778586D01*
X188280126Y-171208517D02*
X174945622Y-171208517D01*
X188280126Y-168995657D02*
X174945622Y-168995657D01*
X188280126Y-164569815D02*
X174945622Y-164569815D01*
X188280126Y-159999746D02*
X174945622Y-159999746D01*
X188280126Y-157786886D02*
X174945622Y-157786886D01*
X188280126Y-153361075D02*
X174945622Y-153361075D01*
X188280126Y-148791006D02*
X174945653Y-148791006D01*
X188280126Y-141992026D02*
X174945622Y-141992026D01*
X188280126Y-137421957D02*
X174945622Y-137421957D01*
X188280126Y-135209097D02*
X174945622Y-135209097D01*
X188280126Y-130815329D02*
X174945622Y-130815329D01*
X188280126Y-126245260D02*
X174945622Y-126245260D01*
X188280126Y-124032400D02*
X174945622Y-124032400D01*
X188280126Y-119478293D02*
X174945622Y-119478293D01*
X188280126Y-114908224D02*
X174945622Y-114908224D01*
X188280126Y-112695364D02*
X174945622Y-112695364D01*
X188280126Y-108237448D02*
X174945622Y-108237448D01*
X188280126Y-103667380D02*
X174945622Y-103667380D01*
X188280126Y-101454519D02*
X174945622Y-101454519D01*
X188280126Y-96996664D02*
X174945622Y-96996664D01*
X188280126Y-92426596D02*
X174945622Y-92426596D01*
X188280126Y-90213736D02*
X174945622Y-90213736D01*
X188280126Y-74354757D02*
X174945622Y-74354757D01*
X188280126Y-85675741D02*
X174945622Y-85675741D01*
X188280126Y-81105673D02*
X174945622Y-81105673D01*
X188280126Y-78892813D02*
X174945622Y-78892813D01*
X159075780Y-183891012D02*
X151143712Y-183891012D01*
X159075780Y-212118551D02*
X159075780Y-183891012D01*
X188309026Y-216151571D02*
X173459372Y-214102912D01*
X159075780Y-212118551D01*
X188280126Y-69804983D02*
X188309026Y-216151571D01*
X174945622Y-69804983D02*
X188280126Y-69804983D01*
X174945653Y-146578055D02*
X174945653Y-148791006D01*
X188280156Y-146578055D02*
X174945653Y-146578055D01*
D13*
X172958165Y-211814139D02*
X186644139Y-211814139D01*
X172958165Y-207393545D02*
X172958165Y-211814139D01*
X186656621Y-207393545D02*
X172958165Y-207393545D01*
X172958165Y-200541220D02*
X186644139Y-200541220D01*
X172958165Y-196120627D02*
X172958165Y-200541220D01*
X186656621Y-196120627D02*
X172958165Y-196120627D01*
X172958165Y-189300375D02*
X186644139Y-189300375D01*
X172958165Y-184879782D02*
X172958165Y-189300375D01*
X186656621Y-184879782D02*
X172958165Y-184879782D01*
X172958165Y-178027456D02*
X186644139Y-178027456D01*
X172958165Y-173606863D02*
X172958165Y-178027456D01*
X186656621Y-173606863D02*
X172958165Y-173606863D01*
X172958165Y-166738486D02*
X186644139Y-166738486D01*
X172958165Y-162317892D02*
X172958165Y-166738486D01*
X186656621Y-162317892D02*
X172958165Y-162317892D01*
X172958165Y-155529715D02*
X186644139Y-155529715D01*
X172958165Y-151109121D02*
X172958165Y-155529715D01*
X186656621Y-151109121D02*
X172958165Y-151109121D01*
X172958165Y-144240744D02*
X186644139Y-144240744D01*
X172958165Y-139820151D02*
X172958165Y-144240744D01*
X186656621Y-139820151D02*
X172958165Y-139820151D01*
X172958165Y-132935751D02*
X186644139Y-132935751D01*
X172958165Y-128515158D02*
X172958165Y-132935751D01*
X186656621Y-128515158D02*
X172958165Y-128515158D01*
X172958165Y-121726980D02*
X186644139Y-121726980D01*
X172958165Y-117306387D02*
X172958165Y-121726980D01*
X186656621Y-117306387D02*
X172958165Y-117306387D01*
X172958165Y-110405935D02*
X186644139Y-110405935D01*
X172958165Y-105985342D02*
X172958165Y-110405935D01*
X186656621Y-105985342D02*
X172958165Y-105985342D01*
X172958165Y-99133017D02*
X186644139Y-99133017D01*
X172958165Y-94712423D02*
X172958165Y-99133017D01*
X186656621Y-94712423D02*
X172958165Y-94712423D01*
X172958165Y-87828085D02*
X186644139Y-87828085D01*
X172958165Y-83407492D02*
X172958165Y-87828085D01*
X186656621Y-83407492D02*
X172958165Y-83407492D01*
X172958165Y-76513876D02*
X186541936Y-76513876D01*
X172958165Y-72093283D02*
X172958165Y-76513876D01*
X186554418Y-72093283D02*
X172958165Y-72093283D01*
%LPD*%
M02*
